<svg xmlns="http://www.w3.org/2000/svg" xmlns:xlink="http://www.w3.org/1999/xlink" width="1120" height="673.01"><rect width="1120" height="673.01" rx="0" ry="0" class="a"/><svg height="673.01" viewBox="0 0 112 67.301" width="1120" xmlns="http://www.w3.org/2000/svg" xmlns:xlink="http://www.w3.org/1999/xlink"><style>@keyframes q{0%{transform:translateX(0)}.5%{transform:translateX(-224px)}.6%{transform:translateX(-672px)}3.4%{transform:translateX(-896px)}5.1%{transform:translateX(-1008px)}7.5%{transform:translateX(-1120px)}9.2%{transform:translateX(-1232px)}11.1%{transform:translateX(-1344px)}12.4%{transform:translateX(-1456px)}14.1%{transform:translateX(-1568px)}15.9%{transform:translateX(-1680px)}19.6%{transform:translateX(-1904px)}21.6%{transform:translateX(-2016px)}23.2%{transform:translateX(-2128px)}29.1%{transform:translateX(-2240px)}36.6%{transform:translateX(-2576px)}37.3%{transform:translateX(-2800px)}38.2%{transform:translateX(-3024px)}38.7%{transform:translateX(-3360px)}39.1%{transform:translateX(-3584px)}39.2%{transform:translateX(-3696px)}39.3%{transform:translateX(-4256px)}to{transform:translateX(-4368px)}}.a{fill:#282d35}.c{fill:#d290e4}.c,.d,.e,.f,.g{white-space:pre}.d{fill:#a8cc8c;font-weight:700}.e,.f,.g{fill:#71bef2}.f,.g{fill:#dbab79}.g{fill:#a8cc8c}.h{fill:#b9c0cb}.h,.i,.j{white-space:pre}.i{fill:#b9c0cb;font-weight:700}.j{fill:#6f7783}.k{fill:#b9c0cb;text-decoration:underline}.k,.l{white-space:pre}.l,.m{fill:#e88388}.n{fill:#dbab79}.s{fill:#e88388;font-weight:700;white-space:pre}</style><g font-family="Monaco,Consolas,Menlo,'Bitstream Vera Sans Mono','Powerline Symbols',monospace" font-size="1.67"><defs><symbol id="1"><text x="1.002" y="1.67" class="c">[</text><text x="2.004" y="1.67" class="d">empa</text><text x="6.012" y="1.67" class="e">@ares</text><text x="11.022" y="1.67" class="c">]</text><text x="13.026" y="1.67" class="f">~/Code/tddd95/exercise1</text><text x="37.074" y="1.67" class="c">[</text><text x="38.076" y="1.67" class="g">master</text><text x="44.088" y="1.67" class="c">]</text><text x="46.092" y="1.67" class="h">%</text><text x="99.198" y="1.67" class="i">exit</text><text x="104.208" y="1.67" class="i">code</text><text x="109.218" y="1.67" class="h">0</text></symbol><symbol id="2"><text x="1.002" y="1.67" class="c">[</text><text x="2.004" y="1.67" class="d">empa</text><text x="6.012" y="1.67" class="e">@ares</text><text x="11.022" y="1.67" class="c">]</text><text x="13.026" y="1.67" class="f">~/Code/tddd95/exercise1</text><text x="37.074" y="1.67" class="c">[</text><text x="38.076" y="1.67" class="g">master</text><text x="44.088" y="1.67" class="c">]</text><text x="46.092" y="1.67" class="h">%</text><text x="48.096" y="1.67" class="g">kattest</text><text x="56.112" y="1.67" class="j">ljutnja.cc</text><text x="99.198" y="1.67" class="i">exit</text><text x="104.208" y="1.67" class="i">code</text><text x="109.218" y="1.67" class="h">0</text></symbol><symbol id="3"><text x="1.002" y="1.67" class="c">[</text><text x="2.004" y="1.67" class="d">empa</text><text x="6.012" y="1.67" class="e">@ares</text><text x="11.022" y="1.67" class="c">]</text><text x="13.026" y="1.67" class="f">~/Code/tddd95/exercise1</text><text x="37.074" y="1.67" class="c">[</text><text x="38.076" y="1.67" class="g">master</text><text x="44.088" y="1.67" class="c">]</text><text x="46.092" y="1.67" class="h">%</text><text x="48.096" y="1.67" class="g">kattest</text><text x="56.112" y="1.67" class="k">aspenavenue.py</text><text x="99.198" y="1.67" class="i">exit</text><text x="104.208" y="1.67" class="i">code</text><text x="109.218" y="1.67" class="h">0</text></symbol><symbol id="4"><text y="1.67" class="h">No</text><text x="3.006" y="1.67" class="h">problem</text><text x="11.022" y="1.67" class="h">name</text><text x="16.032" y="1.67" class="h">specified,</text><text x="27.054" y="1.67" class="h">guessing</text><text x="36.072" y="1.67" class="h">&apos;aspenavenue&apos;</text></symbol><symbol id="5"><text y="1.67" class="h">Downloading</text><text x="12.024" y="1.67" class="h">sample</text><text x="19.038" y="1.67" class="h">data</text><text x="24.048" y="1.67" class="h">for</text><text x="28.056" y="1.67" class="h">problem</text><text x="36.072" y="1.67" class="h">aspenavenue</text><text x="48.096" y="1.67" class="g">✓</text></symbol><symbol id="6"><text y="1.67" class="h">Running</text><text x="8.016" y="1.67" class="h">aspenavenue</text><text x="20.04" y="1.67" class="h">with</text><text x="25.05" y="1.67" class="h">sample</text><text x="32.064" y="1.67" class="h">input</text><text x="38.076" y="1.67" class="h">avenue-1.in</text><text x="50.1" y="1.67" class="l">✗</text></symbol><symbol id="7"><text y="1.67" class="f">Input:</text></symbol><symbol id="8"><text x="2.004" y="1.67" class="h">4</text></symbol><symbol id="9"><text x="2.004" y="1.67" class="h">10</text><text x="5.01" y="1.67" class="h">1</text></symbol><symbol id="10"><text x="2.004" y="1.67" class="h">1</text></symbol><symbol id="11"><text x="2.004" y="1.67" class="h">0</text></symbol><symbol id="12"><text x="2.004" y="1.67" class="h">10</text></symbol><symbol id="13"><text y="1.67" class="f">Diff:</text></symbol><symbol id="14"><path class="m" d="M0 0h2v2.171H0z"/><text y="1.67" class="h">-</text><text x="2.004" y="1.67" class="h">2.4142135624</text></symbol><symbol id="15"><path class="n" d="M0 0h2v2.171H0z"/><text y="1.67" class="h">?</text><text x="13.026" y="1.67" class="h">^</text></symbol><symbol id="16"><path class="m" d="M0 0h2v2.171H0z"/><text y="1.67" class="h">+</text><text x="2.004" y="1.67" class="h">2.414213562373095</text></symbol><symbol id="17"><path class="n" d="M0 0h2v2.171H0z"/><text y="1.67" class="h">?</text><text x="13.026" y="1.67" class="h">^^^^^^</text></symbol><symbol id="18"><text y="1.67" class="h">Running</text><text x="8.016" y="1.67" class="h">aspenavenue</text><text x="20.04" y="1.67" class="h">with</text><text x="25.05" y="1.67" class="h">sample</text><text x="32.064" y="1.67" class="h">input</text><text x="38.076" y="1.67" class="h">avenue-2.in</text><text x="50.1" y="1.67" class="l">✗</text></symbol><symbol id="19"><text x="2.004" y="1.67" class="h">6</text></symbol><symbol id="20"><text x="2.004" y="1.67" class="h">9</text></symbol><symbol id="21"><text x="2.004" y="1.67" class="h">3</text></symbol><symbol id="22"><text x="2.004" y="1.67" class="h">5</text></symbol><symbol id="23"><path class="m" d="M0 0h2v2.171H0z"/><text y="1.67" class="h">-</text><text x="2.004" y="1.67" class="h">9.2853832858</text></symbol><symbol id="24"><path class="m" d="M0 0h2v2.171H0z"/><text y="1.67" class="h">+</text><text x="2.004" y="1.67" class="h">9.28538328578604</text></symbol><symbol id="25"><path class="n" d="M0 0h2v2.171H0z"/><text y="1.67" class="h">?</text><text x="13.026" y="1.67" class="h">+</text><text x="15.03" y="1.67" class="h">+++</text></symbol><symbol id="a"><path fill="transparent" d="M0 0h112v31H0z"/></symbol><symbol id="b"><path fill="#6f7683" d="M0 0h1.102v2.171H0z"/></symbol></defs><path class="a" d="M0 0h112v67.301H0z"/><g style="animation-duration:16.619995s;animation-iteration-count:infinite;animation-name:q;animation-timing-function:steps(1,end)"><svg width="4480"><svg><use xlink:href="#a"/><use xlink:href="#b" x="-.004"/></svg><svg x="112"><use xlink:href="#a"/><use xlink:href="#b" x="-.004"/></svg><svg x="224"><use xlink:href="#a"/><use xlink:href="#b" x="-.004"/></svg><svg x="336"><use xlink:href="#a"/><use xlink:href="#b" x="47.996"/><use xlink:href="#1"/></svg><svg x="448"><use xlink:href="#a"/><use xlink:href="#b" x="47.996"/><use xlink:href="#1"/></svg><svg x="560"><use xlink:href="#a"/><use xlink:href="#b" x="47.996"/><use xlink:href="#1"/></svg><svg x="672"><use xlink:href="#a"/><use xlink:href="#b" x="47.996"/><use xlink:href="#1"/></svg><svg x="784"><use xlink:href="#a"/><use xlink:href="#b" x="48.996"/><text x="1.002" y="1.67" class="c">[</text><text x="2.004" y="1.67" class="d">empa</text><text x="6.012" y="1.67" class="e">@ares</text><text x="11.022" y="1.67" class="c">]</text><text x="13.026" y="1.67" class="f">~/Code/tddd95/exercise1</text><text x="37.074" y="1.67" class="c">[</text><text x="38.076" y="1.67" class="g">master</text><text x="44.088" y="1.67" class="c">]</text><text x="46.092" y="1.67" class="h">%</text><text x="48.096" y="1.67" class="s">k</text><text x="99.198" y="1.67" class="i">exit</text><text x="104.208" y="1.67" class="i">code</text><text x="109.218" y="1.67" class="h">0</text></svg><svg x="896"><use xlink:href="#a"/><use xlink:href="#b" x="48.996"/><text x="1.002" y="1.67" class="c">[</text><text x="2.004" y="1.67" class="d">empa</text><text x="6.012" y="1.67" class="e">@ares</text><text x="11.022" y="1.67" class="c">]</text><text x="13.026" y="1.67" class="f">~/Code/tddd95/exercise1</text><text x="37.074" y="1.67" class="c">[</text><text x="38.076" y="1.67" class="g">master</text><text x="44.088" y="1.67" class="c">]</text><text x="46.092" y="1.67" class="h">%</text><text x="48.096" y="1.67" class="s">k</text><text x="49.098" y="1.67" class="j">attest</text><text x="56.112" y="1.67" class="j">ljutnja.cc</text><text x="99.198" y="1.67" class="i">exit</text><text x="104.208" y="1.67" class="i">code</text><text x="109.218" y="1.67" class="h">0</text></svg><svg x="1008"><use xlink:href="#a"/><use xlink:href="#b" x="49.996"/><text x="1.002" y="1.67" class="c">[</text><text x="2.004" y="1.67" class="d">empa</text><text x="6.012" y="1.67" class="e">@ares</text><text x="11.022" y="1.67" class="c">]</text><text x="13.026" y="1.67" class="f">~/Code/tddd95/exercise1</text><text x="37.074" y="1.67" class="c">[</text><text x="38.076" y="1.67" class="g">master</text><text x="44.088" y="1.67" class="c">]</text><text x="46.092" y="1.67" class="h">%</text><text x="48.096" y="1.67" class="s">ka</text><text x="50.1" y="1.67" class="j">ttest</text><text x="56.112" y="1.67" class="j">ljutnja.cc</text><text x="99.198" y="1.67" class="i">exit</text><text x="104.208" y="1.67" class="i">code</text><text x="109.218" y="1.67" class="h">0</text></svg><svg x="1120"><use xlink:href="#a"/><use xlink:href="#b" x="50.996"/><text x="1.002" y="1.67" class="c">[</text><text x="2.004" y="1.67" class="d">empa</text><text x="6.012" y="1.67" class="e">@ares</text><text x="11.022" y="1.67" class="c">]</text><text x="13.026" y="1.67" class="f">~/Code/tddd95/exercise1</text><text x="37.074" y="1.67" class="c">[</text><text x="38.076" y="1.67" class="g">master</text><text x="44.088" y="1.67" class="c">]</text><text x="46.092" y="1.67" class="h">%</text><text x="48.096" y="1.67" class="s">kat</text><text x="51.102" y="1.67" class="j">test</text><text x="56.112" y="1.67" class="j">ljutnja.cc</text><text x="99.198" y="1.67" class="i">exit</text><text x="104.208" y="1.67" class="i">code</text><text x="109.218" y="1.67" class="h">0</text></svg><svg x="1232"><use xlink:href="#a"/><use xlink:href="#b" x="51.996"/><text x="1.002" y="1.67" class="c">[</text><text x="2.004" y="1.67" class="d">empa</text><text x="6.012" y="1.67" class="e">@ares</text><text x="11.022" y="1.67" class="c">]</text><text x="13.026" y="1.67" class="f">~/Code/tddd95/exercise1</text><text x="37.074" y="1.67" class="c">[</text><text x="38.076" y="1.67" class="g">master</text><text x="44.088" y="1.67" class="c">]</text><text x="46.092" y="1.67" class="h">%</text><text x="48.096" y="1.67" class="s">katt</text><text x="52.104" y="1.67" class="j">est</text><text x="56.112" y="1.67" class="j">ljutnja.cc</text><text x="99.198" y="1.67" class="i">exit</text><text x="104.208" y="1.67" class="i">code</text><text x="109.218" y="1.67" class="h">0</text></svg><svg x="1344"><use xlink:href="#a"/><use xlink:href="#b" x="52.996"/><text x="1.002" y="1.67" class="c">[</text><text x="2.004" y="1.67" class="d">empa</text><text x="6.012" y="1.67" class="e">@ares</text><text x="11.022" y="1.67" class="c">]</text><text x="13.026" y="1.67" class="f">~/Code/tddd95/exercise1</text><text x="37.074" y="1.67" class="c">[</text><text x="38.076" y="1.67" class="g">master</text><text x="44.088" y="1.67" class="c">]</text><text x="46.092" y="1.67" class="h">%</text><text x="48.096" y="1.67" class="s">katte</text><text x="53.106" y="1.67" class="j">st</text><text x="56.112" y="1.67" class="j">ljutnja.cc</text><text x="99.198" y="1.67" class="i">exit</text><text x="104.208" y="1.67" class="i">code</text><text x="109.218" y="1.67" class="h">0</text></svg><svg x="1456"><use xlink:href="#a"/><use xlink:href="#b" x="53.996"/><text x="1.002" y="1.67" class="c">[</text><text x="2.004" y="1.67" class="d">empa</text><text x="6.012" y="1.67" class="e">@ares</text><text x="11.022" y="1.67" class="c">]</text><text x="13.026" y="1.67" class="f">~/Code/tddd95/exercise1</text><text x="37.074" y="1.67" class="c">[</text><text x="38.076" y="1.67" class="g">master</text><text x="44.088" y="1.67" class="c">]</text><text x="46.092" y="1.67" class="h">%</text><text x="48.096" y="1.67" class="s">kattes</text><text x="54.108" y="1.67" class="j">t</text><text x="56.112" y="1.67" class="j">ljutnja.cc</text><text x="99.198" y="1.67" class="i">exit</text><text x="104.208" y="1.67" class="i">code</text><text x="109.218" y="1.67" class="h">0</text></svg><svg x="1568"><use xlink:href="#a"/><use xlink:href="#b" x="54.996"/><use xlink:href="#2"/></svg><svg x="1680"><use xlink:href="#a"/><use xlink:href="#b" x="55.996"/><use xlink:href="#2"/></svg><svg x="1792"><use xlink:href="#a"/><use xlink:href="#b" x="56.996"/><text x="1.002" y="1.67" class="c">[</text><text x="2.004" y="1.67" class="d">empa</text><text x="6.012" y="1.67" class="e">@ares</text><text x="11.022" y="1.67" class="c">]</text><text x="13.026" y="1.67" class="f">~/Code/tddd95/exercise1</text><text x="37.074" y="1.67" class="c">[</text><text x="38.076" y="1.67" class="g">master</text><text x="44.088" y="1.67" class="c">]</text><text x="46.092" y="1.67" class="h">%</text><text x="48.096" y="1.67" class="g">kattest</text><text x="56.112" y="1.67" class="k">a</text><text x="99.198" y="1.67" class="i">exit</text><text x="104.208" y="1.67" class="i">code</text><text x="109.218" y="1.67" class="h">0</text></svg><svg x="1904"><use xlink:href="#a"/><use xlink:href="#b" x="56.996"/><text x="1.002" y="1.67" class="c">[</text><text x="2.004" y="1.67" class="d">empa</text><text x="6.012" y="1.67" class="e">@ares</text><text x="11.022" y="1.67" class="c">]</text><text x="13.026" y="1.67" class="f">~/Code/tddd95/exercise1</text><text x="37.074" y="1.67" class="c">[</text><text x="38.076" y="1.67" class="g">master</text><text x="44.088" y="1.67" class="c">]</text><text x="46.092" y="1.67" class="h">%</text><text x="48.096" y="1.67" class="g">kattest</text><text x="56.112" y="1.67" class="k">a</text><text x="57.114" y="1.67" class="j">spenavenue.py</text><text x="99.198" y="1.67" class="i">exit</text><text x="104.208" y="1.67" class="i">code</text><text x="109.218" y="1.67" class="h">0</text></svg><svg x="2016"><use xlink:href="#a"/><use xlink:href="#b" x="57.996"/><text x="1.002" y="1.67" class="c">[</text><text x="2.004" y="1.67" class="d">empa</text><text x="6.012" y="1.67" class="e">@ares</text><text x="11.022" y="1.67" class="c">]</text><text x="13.026" y="1.67" class="f">~/Code/tddd95/exercise1</text><text x="37.074" y="1.67" class="c">[</text><text x="38.076" y="1.67" class="g">master</text><text x="44.088" y="1.67" class="c">]</text><text x="46.092" y="1.67" class="h">%</text><text x="48.096" y="1.67" class="g">kattest</text><text x="56.112" y="1.67" class="k">as</text><text x="58.116" y="1.67" class="j">penavenue.py</text><text x="99.198" y="1.67" class="i">exit</text><text x="104.208" y="1.67" class="i">code</text><text x="109.218" y="1.67" class="h">0</text></svg><svg x="2128"><use xlink:href="#a"/><use xlink:href="#b" x="58.996"/><text x="1.002" y="1.67" class="c">[</text><text x="2.004" y="1.67" class="d">empa</text><text x="6.012" y="1.67" class="e">@ares</text><text x="11.022" y="1.67" class="c">]</text><text x="13.026" y="1.67" class="f">~/Code/tddd95/exercise1</text><text x="37.074" y="1.67" class="c">[</text><text x="38.076" y="1.67" class="g">master</text><text x="44.088" y="1.67" class="c">]</text><text x="46.092" y="1.67" class="h">%</text><text x="48.096" y="1.67" class="g">kattest</text><text x="56.112" y="1.67" class="k">asp</text><text x="59.118" y="1.67" class="j">enavenue.py</text><text x="99.198" y="1.67" class="i">exit</text><text x="104.208" y="1.67" class="i">code</text><text x="109.218" y="1.67" class="h">0</text></svg><svg x="2240"><use xlink:href="#a"/><use xlink:href="#b" x="70.996"/><use xlink:href="#3"/></svg><svg x="2352"><use xlink:href="#a"/><use xlink:href="#b" x="69.996"/><use xlink:href="#3"/></svg><svg x="2464"><use xlink:href="#a"/><use xlink:href="#b" x="69.996"/><use xlink:href="#3"/></svg><svg x="2576"><use xlink:href="#a"/><use xlink:href="#b" x="-.004" y="2.146"/><use xlink:href="#3"/></svg><svg x="2688"><use xlink:href="#a"/><use xlink:href="#b" x="-.004" y="4.317"/><use xlink:href="#3"/><use xlink:href="#4" y="2.171"/></svg><svg x="2800"><use xlink:href="#a"/><use xlink:href="#b" x="48.996" y="4.317"/><use xlink:href="#3"/><use xlink:href="#4" y="2.171"/><text y="6.012" class="h">Downloading</text><text x="12.024" y="6.012" class="h">sample</text><text x="19.038" y="6.012" class="h">data</text><text x="24.048" y="6.012" class="h">for</text><text x="28.056" y="6.012" class="h">problem</text><text x="36.072" y="6.012" class="h">aspenavenue</text><text x="48.096" y="6.012" class="f">⠋</text></svg><svg x="2912"><use xlink:href="#a"/><use xlink:href="#b" x="-.004" y="6.488"/><use xlink:href="#3"/><use xlink:href="#4" y="2.171"/><use xlink:href="#5" y="4.342"/></svg><svg x="3024"><use xlink:href="#a"/><use xlink:href="#b" x="50.996" y="6.488"/><use xlink:href="#3"/><use xlink:href="#4" y="2.171"/><use xlink:href="#5" y="4.342"/><text y="8.183" class="h">Running</text><text x="8.016" y="8.183" class="h">aspenavenue</text><text x="20.04" y="8.183" class="h">with</text><text x="25.05" y="8.183" class="h">sample</text><text x="32.064" y="8.183" class="h">input</text><text x="38.076" y="8.183" class="h">avenue-1.in</text><text x="50.1" y="8.183" class="f">⠋</text></svg><svg x="3136"><use xlink:href="#a"/><use xlink:href="#b" x="49.996" y="6.488"/><use xlink:href="#3"/><use xlink:href="#4" y="2.171"/><use xlink:href="#5" y="4.342"/><text y="8.183" class="h">Running</text><text x="8.016" y="8.183" class="h">aspenavenue</text><text x="20.04" y="8.183" class="h">with</text><text x="25.05" y="8.183" class="h">sample</text><text x="32.064" y="8.183" class="h">input</text><text x="38.076" y="8.183" class="h">avenue-1.in</text></svg><svg x="3248"><use xlink:href="#a"/><use xlink:href="#b" x="-.004" y="39.053"/><use xlink:href="#3"/><use xlink:href="#4" y="2.171"/><use xlink:href="#5" y="4.342"/><use xlink:href="#6" y="6.513"/><use xlink:href="#7" y="8.684"/><use xlink:href="#8" y="10.855"/><use xlink:href="#9" y="13.026"/><use xlink:href="#10" y="15.197"/><use xlink:href="#11" y="17.368"/><use xlink:href="#12" y="19.539"/><use xlink:href="#12" y="21.71"/><use xlink:href="#13" y="23.881"/><use xlink:href="#14" y="26.052"/><use xlink:href="#15" y="28.223"/><use xlink:href="#16" y="32.565"/><use xlink:href="#17" y="34.736"/></svg><svg x="3360"><use xlink:href="#a"/><use xlink:href="#b" x="50.996" y="39.053"/><use xlink:href="#3"/><use xlink:href="#4" y="2.171"/><use xlink:href="#5" y="4.342"/><use xlink:href="#6" y="6.513"/><use xlink:href="#7" y="8.684"/><use xlink:href="#8" y="10.855"/><use xlink:href="#9" y="13.026"/><use xlink:href="#10" y="15.197"/><use xlink:href="#11" y="17.368"/><use xlink:href="#12" y="19.539"/><use xlink:href="#12" y="21.71"/><use xlink:href="#13" y="23.881"/><use xlink:href="#14" y="26.052"/><use xlink:href="#15" y="28.223"/><use xlink:href="#16" y="32.565"/><use xlink:href="#17" y="34.736"/><text y="40.748" class="h">Running</text><text x="8.016" y="40.748" class="h">aspenavenue</text><text x="20.04" y="40.748" class="h">with</text><text x="25.05" y="40.748" class="h">sample</text><text x="32.064" y="40.748" class="h">input</text><text x="38.076" y="40.748" class="h">avenue-2.in</text><text x="50.1" y="40.748" class="f">⠋</text></svg><svg x="3472"><use xlink:href="#a"/><use xlink:href="#b" x="49.996" y="39.053"/><use xlink:href="#3"/><use xlink:href="#4" y="2.171"/><use xlink:href="#5" y="4.342"/><use xlink:href="#6" y="6.513"/><use xlink:href="#7" y="8.684"/><use xlink:href="#8" y="10.855"/><use xlink:href="#9" y="13.026"/><use xlink:href="#10" y="15.197"/><use xlink:href="#11" y="17.368"/><use xlink:href="#12" y="19.539"/><use xlink:href="#12" y="21.71"/><use xlink:href="#13" y="23.881"/><use xlink:href="#14" y="26.052"/><use xlink:href="#15" y="28.223"/><use xlink:href="#16" y="32.565"/><use xlink:href="#17" y="34.736"/><text y="40.748" class="h">Running</text><text x="8.016" y="40.748" class="h">aspenavenue</text><text x="20.04" y="40.748" class="h">with</text><text x="25.05" y="40.748" class="h">sample</text><text x="32.064" y="40.748" class="h">input</text><text x="38.076" y="40.748" class="h">avenue-2.in</text></svg><svg x="3584"><use xlink:href="#a"/><use xlink:href="#b" x="-.004" y="65.105"/><use xlink:href="#6"/><use xlink:href="#7" y="2.171"/><use xlink:href="#8" y="4.342"/><use xlink:href="#9" y="6.513"/><use xlink:href="#10" y="8.684"/><use xlink:href="#11" y="10.855"/><use xlink:href="#12" y="13.026"/><use xlink:href="#12" y="15.197"/><use xlink:href="#13" y="17.368"/><use xlink:href="#14" y="19.539"/><use xlink:href="#15" y="21.71"/><use xlink:href="#16" y="26.052"/><use xlink:href="#17" y="28.223"/><use xlink:href="#18" y="32.565"/><use xlink:href="#7" y="34.736"/><use xlink:href="#19" y="36.907"/><use xlink:href="#9" y="39.078"/><use xlink:href="#11" y="41.249"/><use xlink:href="#20" y="43.42"/><use xlink:href="#21" y="45.591"/><use xlink:href="#22" y="47.762"/><use xlink:href="#22" y="49.933"/><use xlink:href="#19" y="52.104"/><use xlink:href="#13" y="54.275"/><use xlink:href="#23" y="56.446"/><use xlink:href="#24" y="58.617"/><use xlink:href="#25" y="60.788"/></svg><svg x="3696"><use xlink:href="#a"/><use xlink:href="#b" x="-.004" y="65.105"/><use xlink:href="#6"/><use xlink:href="#7" y="2.171"/><use xlink:href="#8" y="4.342"/><use xlink:href="#9" y="6.513"/><use xlink:href="#10" y="8.684"/><use xlink:href="#11" y="10.855"/><use xlink:href="#12" y="13.026"/><use xlink:href="#12" y="15.197"/><use xlink:href="#13" y="17.368"/><use xlink:href="#14" y="19.539"/><use xlink:href="#15" y="21.71"/><use xlink:href="#16" y="26.052"/><use xlink:href="#17" y="28.223"/><use xlink:href="#18" y="32.565"/><use xlink:href="#7" y="34.736"/><use xlink:href="#19" y="36.907"/><use xlink:href="#9" y="39.078"/><use xlink:href="#11" y="41.249"/><use xlink:href="#20" y="43.42"/><use xlink:href="#21" y="45.591"/><use xlink:href="#22" y="47.762"/><use xlink:href="#22" y="49.933"/><use xlink:href="#19" y="52.104"/><use xlink:href="#13" y="54.275"/><use xlink:href="#23" y="56.446"/><use xlink:href="#24" y="58.617"/><use xlink:href="#25" y="60.788"/></svg><svg x="3808"><use xlink:href="#a"/><use xlink:href="#b" x="-.004" y="65.105"/><use xlink:href="#6"/><use xlink:href="#7" y="2.171"/><use xlink:href="#8" y="4.342"/><use xlink:href="#9" y="6.513"/><use xlink:href="#10" y="8.684"/><use xlink:href="#11" y="10.855"/><use xlink:href="#12" y="13.026"/><use xlink:href="#12" y="15.197"/><use xlink:href="#13" y="17.368"/><use xlink:href="#14" y="19.539"/><use xlink:href="#15" y="21.71"/><use xlink:href="#16" y="26.052"/><use xlink:href="#17" y="28.223"/><use xlink:href="#18" y="32.565"/><use xlink:href="#7" y="34.736"/><use xlink:href="#19" y="36.907"/><use xlink:href="#9" y="39.078"/><use xlink:href="#11" y="41.249"/><use xlink:href="#20" y="43.42"/><use xlink:href="#21" y="45.591"/><use xlink:href="#22" y="47.762"/><use xlink:href="#22" y="49.933"/><use xlink:href="#19" y="52.104"/><use xlink:href="#13" y="54.275"/><use xlink:href="#23" y="56.446"/><use xlink:href="#24" y="58.617"/><use xlink:href="#25" y="60.788"/></svg><svg x="3920"><use xlink:href="#a"/><use xlink:href="#b" x="47.996" y="65.105"/><use xlink:href="#6"/><use xlink:href="#7" y="2.171"/><use xlink:href="#8" y="4.342"/><use xlink:href="#9" y="6.513"/><use xlink:href="#10" y="8.684"/><use xlink:href="#11" y="10.855"/><use xlink:href="#12" y="13.026"/><use xlink:href="#12" y="15.197"/><use xlink:href="#13" y="17.368"/><use xlink:href="#14" y="19.539"/><use xlink:href="#15" y="21.71"/><use xlink:href="#16" y="26.052"/><use xlink:href="#17" y="28.223"/><use xlink:href="#18" y="32.565"/><use xlink:href="#7" y="34.736"/><use xlink:href="#19" y="36.907"/><use xlink:href="#9" y="39.078"/><use xlink:href="#11" y="41.249"/><use xlink:href="#20" y="43.42"/><use xlink:href="#21" y="45.591"/><use xlink:href="#22" y="47.762"/><use xlink:href="#22" y="49.933"/><use xlink:href="#19" y="52.104"/><use xlink:href="#13" y="54.275"/><use xlink:href="#23" y="56.446"/><use xlink:href="#24" y="58.617"/><use xlink:href="#25" y="60.788"/><use xlink:href="#1" y="65.13"/></svg><svg x="4032"><use xlink:href="#a"/><use xlink:href="#b" x="47.996" y="65.105"/><use xlink:href="#6"/><use xlink:href="#7" y="2.171"/><use xlink:href="#8" y="4.342"/><use xlink:href="#9" y="6.513"/><use xlink:href="#10" y="8.684"/><use xlink:href="#11" y="10.855"/><use xlink:href="#12" y="13.026"/><use xlink:href="#12" y="15.197"/><use xlink:href="#13" y="17.368"/><use xlink:href="#14" y="19.539"/><use xlink:href="#15" y="21.71"/><use xlink:href="#16" y="26.052"/><use xlink:href="#17" y="28.223"/><use xlink:href="#18" y="32.565"/><use xlink:href="#7" y="34.736"/><use xlink:href="#19" y="36.907"/><use xlink:href="#9" y="39.078"/><use xlink:href="#11" y="41.249"/><use xlink:href="#20" y="43.42"/><use xlink:href="#21" y="45.591"/><use xlink:href="#22" y="47.762"/><use xlink:href="#22" y="49.933"/><use xlink:href="#19" y="52.104"/><use xlink:href="#13" y="54.275"/><use xlink:href="#23" y="56.446"/><use xlink:href="#24" y="58.617"/><use xlink:href="#25" y="60.788"/><use xlink:href="#1" y="65.13"/></svg><svg x="4144"><use xlink:href="#a"/><use xlink:href="#b" x="47.996" y="65.105"/><use xlink:href="#6"/><use xlink:href="#7" y="2.171"/><use xlink:href="#8" y="4.342"/><use xlink:href="#9" y="6.513"/><use xlink:href="#10" y="8.684"/><use xlink:href="#11" y="10.855"/><use xlink:href="#12" y="13.026"/><use xlink:href="#12" y="15.197"/><use xlink:href="#13" y="17.368"/><use xlink:href="#14" y="19.539"/><use xlink:href="#15" y="21.71"/><use xlink:href="#16" y="26.052"/><use xlink:href="#17" y="28.223"/><use xlink:href="#18" y="32.565"/><use xlink:href="#7" y="34.736"/><use xlink:href="#19" y="36.907"/><use xlink:href="#9" y="39.078"/><use xlink:href="#11" y="41.249"/><use xlink:href="#20" y="43.42"/><use xlink:href="#21" y="45.591"/><use xlink:href="#22" y="47.762"/><use xlink:href="#22" y="49.933"/><use xlink:href="#19" y="52.104"/><use xlink:href="#13" y="54.275"/><use xlink:href="#23" y="56.446"/><use xlink:href="#24" y="58.617"/><use xlink:href="#25" y="60.788"/><use xlink:href="#1" y="65.13"/></svg><svg x="4256"><use xlink:href="#a"/><use xlink:href="#b" x="47.996" y="65.105"/><use xlink:href="#6"/><use xlink:href="#7" y="2.171"/><use xlink:href="#8" y="4.342"/><use xlink:href="#9" y="6.513"/><use xlink:href="#10" y="8.684"/><use xlink:href="#11" y="10.855"/><use xlink:href="#12" y="13.026"/><use xlink:href="#12" y="15.197"/><use xlink:href="#13" y="17.368"/><use xlink:href="#14" y="19.539"/><use xlink:href="#15" y="21.71"/><use xlink:href="#16" y="26.052"/><use xlink:href="#17" y="28.223"/><use xlink:href="#18" y="32.565"/><use xlink:href="#7" y="34.736"/><use xlink:href="#19" y="36.907"/><use xlink:href="#9" y="39.078"/><use xlink:href="#11" y="41.249"/><use xlink:href="#20" y="43.42"/><use xlink:href="#21" y="45.591"/><use xlink:href="#22" y="47.762"/><use xlink:href="#22" y="49.933"/><use xlink:href="#19" y="52.104"/><use xlink:href="#13" y="54.275"/><use xlink:href="#23" y="56.446"/><use xlink:href="#24" y="58.617"/><use xlink:href="#25" y="60.788"/><use xlink:href="#1" y="65.13"/></svg><svg x="4368"><use xlink:href="#a"/><use xlink:href="#b" x="-.004" y="65.105"/><use xlink:href="#7"/><use xlink:href="#8" y="2.171"/><use xlink:href="#9" y="4.342"/><use xlink:href="#10" y="6.513"/><use xlink:href="#11" y="8.684"/><use xlink:href="#12" y="10.855"/><use xlink:href="#12" y="13.026"/><use xlink:href="#13" y="15.197"/><use xlink:href="#14" y="17.368"/><use xlink:href="#15" y="19.539"/><use xlink:href="#16" y="23.881"/><use xlink:href="#17" y="26.052"/><use xlink:href="#18" y="30.394"/><use xlink:href="#7" y="32.565"/><use xlink:href="#19" y="34.736"/><use xlink:href="#9" y="36.907"/><use xlink:href="#11" y="39.078"/><use xlink:href="#20" y="41.249"/><use xlink:href="#21" y="43.42"/><use xlink:href="#22" y="45.591"/><use xlink:href="#22" y="47.762"/><use xlink:href="#19" y="49.933"/><use xlink:href="#13" y="52.104"/><use xlink:href="#23" y="54.275"/><use xlink:href="#24" y="56.446"/><use xlink:href="#25" y="58.617"/><use xlink:href="#1" y="62.959"/></svg></svg></g></g></svg></svg>