<svg xmlns="http://www.w3.org/2000/svg" xmlns:xlink="http://www.w3.org/1999/xlink" width="1120" height="673.01"><rect width="1120" height="673.01" rx="0" ry="0" class="a"/><svg height="673.01" viewBox="0 0 112 67.301" width="1120" xmlns="http://www.w3.org/2000/svg" xmlns:xlink="http://www.w3.org/1999/xlink"><style>@keyframes n{0%{transform:translateX(0)}.7%{transform:translateX(-112px)}.9%{transform:translateX(-224px)}1%{transform:translateX(-784px)}7.9%{transform:translateX(-1008px)}9.8%{transform:translateX(-1120px)}12.8%{transform:translateX(-1232px)}14.7%{transform:translateX(-1344px)}17.4%{transform:translateX(-1456px)}19.1%{transform:translateX(-1568px)}21.6%{transform:translateX(-1680px)}23.3%{transform:translateX(-1792px)}25.3%{transform:translateX(-1904px)}27.2%{transform:translateX(-2016px)}30.3%{transform:translateX(-2128px)}32.3%{transform:translateX(-2240px)}34.4%{transform:translateX(-2352px)}36.4%{transform:translateX(-2464px)}39.4%{transform:translateX(-2576px)}41.2%{transform:translateX(-2688px)}43.9%{transform:translateX(-2800px)}46.2%{transform:translateX(-2912px)}54.4%{transform:translateX(-3136px)}55.6%{transform:translateX(-3360px)}57.7%{transform:translateX(-3696px)}60.1%{transform:translateX(-3808px)}62.6%{transform:translateX(-3920px)}65%{transform:translateX(-4032px)}67.2%{transform:translateX(-4592px)}67.3%{transform:translateX(-4704px)}67.4%{transform:translateX(-4816px)}67.5%{transform:translateX(-4928px)}67.6%{transform:translateX(-5488px)}to{transform:translateX(-5600px)}}.a{fill:#282d35}.c,.d{fill:#d290e4;white-space:pre}.d{fill:#a8cc8c;font-weight:700}.e,.f,.g,.h,.i{fill:#71bef2;white-space:pre}.f,.g,.h,.i{fill:#dbab79}.g,.h,.i{fill:#a8cc8c}.h,.i{fill:#b9c0cb}.i{font-weight:700}.j{fill:#6f7783}.j,.k,.p{white-space:pre}.k{fill:#b9c0cb;text-decoration:underline}.p{fill:#e88388;font-weight:700}</style><g font-family="Monaco,Consolas,Menlo,'Bitstream Vera Sans Mono','Powerline Symbols',monospace" font-size="1.67"><defs><symbol id="1"><text x="1.002" y="1.67" class="c">[</text><text x="2.004" y="1.67" class="d">empa</text><text x="6.012" y="1.67" class="e">@ares</text><text x="11.022" y="1.67" class="c">]</text><text x="13.026" y="1.67" class="f">~/Code/tddd95/exercise1</text><text x="37.074" y="1.67" class="c">[</text><text x="38.076" y="1.67" class="g">master</text><text x="44.088" y="1.67" class="c">]</text><text x="46.092" y="1.67" class="h">%</text></symbol><symbol id="2"><text x="1.002" y="1.67" class="c">[</text><text x="2.004" y="1.67" class="d">empa</text><text x="6.012" y="1.67" class="e">@ares</text><text x="11.022" y="1.67" class="c">]</text><text x="13.026" y="1.67" class="f">~/Code/tddd95/exercise1</text><text x="37.074" y="1.67" class="c">[</text><text x="38.076" y="1.67" class="g">master</text><text x="44.088" y="1.67" class="c">]</text><text x="46.092" y="1.67" class="h">%</text><text x="99.198" y="1.67" class="i">exit</text><text x="104.208" y="1.67" class="i">code</text><text x="109.218" y="1.67" class="h">0</text></symbol><symbol id="3"><text x="1.002" y="1.67" class="c">[</text><text x="2.004" y="1.67" class="d">empa</text><text x="6.012" y="1.67" class="e">@ares</text><text x="11.022" y="1.67" class="c">]</text><text x="13.026" y="1.67" class="f">~/Code/tddd95/exercise1</text><text x="37.074" y="1.67" class="c">[</text><text x="38.076" y="1.67" class="g">master</text><text x="44.088" y="1.67" class="c">]</text><text x="46.092" y="1.67" class="h">%</text><text x="48.096" y="1.67" class="g">kattest</text><text x="56.112" y="1.67" class="j">ljutnja.cc</text><text x="99.198" y="1.67" class="i">exit</text><text x="104.208" y="1.67" class="i">code</text><text x="109.218" y="1.67" class="h">0</text></symbol><symbol id="4"><text x="1.002" y="1.67" class="c">[</text><text x="2.004" y="1.67" class="d">empa</text><text x="6.012" y="1.67" class="e">@ares</text><text x="11.022" y="1.67" class="c">]</text><text x="13.026" y="1.67" class="f">~/Code/tddd95/exercise1</text><text x="37.074" y="1.67" class="c">[</text><text x="38.076" y="1.67" class="g">master</text><text x="44.088" y="1.67" class="c">]</text><text x="46.092" y="1.67" class="h">%</text><text x="48.096" y="1.67" class="g">kattest</text><text x="56.112" y="1.67" class="k">ljutnja.cc</text><text x="99.198" y="1.67" class="i">exit</text><text x="104.208" y="1.67" class="i">code</text><text x="109.218" y="1.67" class="h">0</text></symbol><symbol id="5"><text y="1.67" class="h">No</text><text x="3.006" y="1.67" class="h">problem</text><text x="11.022" y="1.67" class="h">name</text><text x="16.032" y="1.67" class="h">specified,</text><text x="27.054" y="1.67" class="h">guessing</text><text x="36.072" y="1.67" class="h">&apos;ljutnja&apos;</text></symbol><symbol id="6"><text y="1.67" class="h">Downloading</text><text x="12.024" y="1.67" class="h">sample</text><text x="19.038" y="1.67" class="h">data</text><text x="24.048" y="1.67" class="h">for</text><text x="28.056" y="1.67" class="h">problem</text><text x="36.072" y="1.67" class="h">ljutnja</text><text x="44.088" y="1.67" class="g">✓</text></symbol><symbol id="7"><text y="1.67" class="h">Compiling</text><text x="10.02" y="1.67" class="h">ljutnja.cc</text><text x="21.042" y="1.67" class="g">✓</text></symbol><symbol id="8"><text y="1.67" class="h">Running</text><text x="8.016" y="1.67" class="h">ljutnja</text><text x="16.032" y="1.67" class="h">with</text><text x="21.042" y="1.67" class="h">sample</text><text x="28.056" y="1.67" class="h">input</text><text x="34.068" y="1.67" class="h">ljutnja.1.in</text><text x="47.094" y="1.67" class="g">✓</text></symbol><symbol id="9"><text y="1.67" class="h">Running</text><text x="8.016" y="1.67" class="h">ljutnja</text><text x="16.032" y="1.67" class="h">with</text><text x="21.042" y="1.67" class="h">sample</text><text x="28.056" y="1.67" class="h">input</text><text x="34.068" y="1.67" class="h">ljutnja.2.in</text><text x="47.094" y="1.67" class="g">✓</text></symbol><symbol id="a"><path fill="transparent" d="M0 0h112v31H0z"/></symbol><symbol id="b"><path fill="#6f7683" d="M0 0h1.102v2.171H0z"/></symbol></defs><path class="a" d="M0 0h112v67.301H0z"/><g style="animation-duration:10.319173s;animation-iteration-count:infinite;animation-name:n;animation-timing-function:steps(1,end)"><svg width="5712"><svg><use xlink:href="#a"/><use xlink:href="#b" x="-.004"/></svg><svg x="112"><use xlink:href="#a"/><use xlink:href="#b" x="-.004"/></svg><svg x="224"><use xlink:href="#a"/><use xlink:href="#b" x="-.004"/></svg><svg x="336"><use xlink:href="#a"/><use xlink:href="#b" x="47.996"/><use xlink:href="#1"/></svg><svg x="448"><use xlink:href="#a"/><use xlink:href="#b" x="47.996"/><use xlink:href="#2"/></svg><svg x="560"><use xlink:href="#a"/><use xlink:href="#b" x="47.996"/><use xlink:href="#2"/></svg><svg x="672"><use xlink:href="#a"/><use xlink:href="#b" x="47.996"/><use xlink:href="#2"/></svg><svg x="784"><use xlink:href="#a"/><use xlink:href="#b" x="47.996"/><use xlink:href="#2"/></svg><svg x="896"><use xlink:href="#a"/><use xlink:href="#b" x="48.996"/><text x="1.002" y="1.67" class="c">[</text><text x="2.004" y="1.67" class="d">empa</text><text x="6.012" y="1.67" class="e">@ares</text><text x="11.022" y="1.67" class="c">]</text><text x="13.026" y="1.67" class="f">~/Code/tddd95/exercise1</text><text x="37.074" y="1.67" class="c">[</text><text x="38.076" y="1.67" class="g">master</text><text x="44.088" y="1.67" class="c">]</text><text x="46.092" y="1.67" class="h">%</text><text x="48.096" y="1.67" class="p">k</text><text x="99.198" y="1.67" class="i">exit</text><text x="104.208" y="1.67" class="i">code</text><text x="109.218" y="1.67" class="h">0</text></svg><svg x="1008"><use xlink:href="#a"/><use xlink:href="#b" x="48.996"/><text x="1.002" y="1.67" class="c">[</text><text x="2.004" y="1.67" class="d">empa</text><text x="6.012" y="1.67" class="e">@ares</text><text x="11.022" y="1.67" class="c">]</text><text x="13.026" y="1.67" class="f">~/Code/tddd95/exercise1</text><text x="37.074" y="1.67" class="c">[</text><text x="38.076" y="1.67" class="g">master</text><text x="44.088" y="1.67" class="c">]</text><text x="46.092" y="1.67" class="h">%</text><text x="48.096" y="1.67" class="p">k</text><text x="49.098" y="1.67" class="j">attest</text><text x="56.112" y="1.67" class="j">ljutnja.cc</text><text x="99.198" y="1.67" class="i">exit</text><text x="104.208" y="1.67" class="i">code</text><text x="109.218" y="1.67" class="h">0</text></svg><svg x="1120"><use xlink:href="#a"/><use xlink:href="#b" x="49.996"/><text x="1.002" y="1.67" class="c">[</text><text x="2.004" y="1.67" class="d">empa</text><text x="6.012" y="1.67" class="e">@ares</text><text x="11.022" y="1.67" class="c">]</text><text x="13.026" y="1.67" class="f">~/Code/tddd95/exercise1</text><text x="37.074" y="1.67" class="c">[</text><text x="38.076" y="1.67" class="g">master</text><text x="44.088" y="1.67" class="c">]</text><text x="46.092" y="1.67" class="h">%</text><text x="48.096" y="1.67" class="p">ka</text><text x="50.1" y="1.67" class="j">ttest</text><text x="56.112" y="1.67" class="j">ljutnja.cc</text><text x="99.198" y="1.67" class="i">exit</text><text x="104.208" y="1.67" class="i">code</text><text x="109.218" y="1.67" class="h">0</text></svg><svg x="1232"><use xlink:href="#a"/><use xlink:href="#b" x="50.996"/><text x="1.002" y="1.67" class="c">[</text><text x="2.004" y="1.67" class="d">empa</text><text x="6.012" y="1.67" class="e">@ares</text><text x="11.022" y="1.67" class="c">]</text><text x="13.026" y="1.67" class="f">~/Code/tddd95/exercise1</text><text x="37.074" y="1.67" class="c">[</text><text x="38.076" y="1.67" class="g">master</text><text x="44.088" y="1.67" class="c">]</text><text x="46.092" y="1.67" class="h">%</text><text x="48.096" y="1.67" class="p">kat</text><text x="51.102" y="1.67" class="j">test</text><text x="56.112" y="1.67" class="j">ljutnja.cc</text><text x="99.198" y="1.67" class="i">exit</text><text x="104.208" y="1.67" class="i">code</text><text x="109.218" y="1.67" class="h">0</text></svg><svg x="1344"><use xlink:href="#a"/><use xlink:href="#b" x="51.996"/><text x="1.002" y="1.67" class="c">[</text><text x="2.004" y="1.67" class="d">empa</text><text x="6.012" y="1.67" class="e">@ares</text><text x="11.022" y="1.67" class="c">]</text><text x="13.026" y="1.67" class="f">~/Code/tddd95/exercise1</text><text x="37.074" y="1.67" class="c">[</text><text x="38.076" y="1.67" class="g">master</text><text x="44.088" y="1.67" class="c">]</text><text x="46.092" y="1.67" class="h">%</text><text x="48.096" y="1.67" class="p">katt</text><text x="52.104" y="1.67" class="j">est</text><text x="56.112" y="1.67" class="j">ljutnja.cc</text><text x="99.198" y="1.67" class="i">exit</text><text x="104.208" y="1.67" class="i">code</text><text x="109.218" y="1.67" class="h">0</text></svg><svg x="1456"><use xlink:href="#a"/><use xlink:href="#b" x="52.996"/><text x="1.002" y="1.67" class="c">[</text><text x="2.004" y="1.67" class="d">empa</text><text x="6.012" y="1.67" class="e">@ares</text><text x="11.022" y="1.67" class="c">]</text><text x="13.026" y="1.67" class="f">~/Code/tddd95/exercise1</text><text x="37.074" y="1.67" class="c">[</text><text x="38.076" y="1.67" class="g">master</text><text x="44.088" y="1.67" class="c">]</text><text x="46.092" y="1.67" class="h">%</text><text x="48.096" y="1.67" class="p">katte</text><text x="53.106" y="1.67" class="j">st</text><text x="56.112" y="1.67" class="j">ljutnja.cc</text><text x="99.198" y="1.67" class="i">exit</text><text x="104.208" y="1.67" class="i">code</text><text x="109.218" y="1.67" class="h">0</text></svg><svg x="1568"><use xlink:href="#a"/><use xlink:href="#b" x="53.996"/><text x="1.002" y="1.67" class="c">[</text><text x="2.004" y="1.67" class="d">empa</text><text x="6.012" y="1.67" class="e">@ares</text><text x="11.022" y="1.67" class="c">]</text><text x="13.026" y="1.67" class="f">~/Code/tddd95/exercise1</text><text x="37.074" y="1.67" class="c">[</text><text x="38.076" y="1.67" class="g">master</text><text x="44.088" y="1.67" class="c">]</text><text x="46.092" y="1.67" class="h">%</text><text x="48.096" y="1.67" class="p">kattes</text><text x="54.108" y="1.67" class="j">t</text><text x="56.112" y="1.67" class="j">ljutnja.cc</text><text x="99.198" y="1.67" class="i">exit</text><text x="104.208" y="1.67" class="i">code</text><text x="109.218" y="1.67" class="h">0</text></svg><svg x="1680"><use xlink:href="#a"/><use xlink:href="#b" x="54.996"/><use xlink:href="#3"/></svg><svg x="1792"><use xlink:href="#a"/><use xlink:href="#b" x="55.996"/><use xlink:href="#3"/></svg><svg x="1904"><use xlink:href="#a"/><use xlink:href="#b" x="56.996"/><text x="1.002" y="1.67" class="c">[</text><text x="2.004" y="1.67" class="d">empa</text><text x="6.012" y="1.67" class="e">@ares</text><text x="11.022" y="1.67" class="c">]</text><text x="13.026" y="1.67" class="f">~/Code/tddd95/exercise1</text><text x="37.074" y="1.67" class="c">[</text><text x="38.076" y="1.67" class="g">master</text><text x="44.088" y="1.67" class="c">]</text><text x="46.092" y="1.67" class="h">%</text><text x="48.096" y="1.67" class="g">kattest</text><text x="56.112" y="1.67" class="k">l</text><text x="57.114" y="1.67" class="j">jutnja.cc</text><text x="99.198" y="1.67" class="i">exit</text><text x="104.208" y="1.67" class="i">code</text><text x="109.218" y="1.67" class="h">0</text></svg><svg x="2016"><use xlink:href="#a"/><use xlink:href="#b" x="57.996"/><text x="1.002" y="1.67" class="c">[</text><text x="2.004" y="1.67" class="d">empa</text><text x="6.012" y="1.67" class="e">@ares</text><text x="11.022" y="1.67" class="c">]</text><text x="13.026" y="1.67" class="f">~/Code/tddd95/exercise1</text><text x="37.074" y="1.67" class="c">[</text><text x="38.076" y="1.67" class="g">master</text><text x="44.088" y="1.67" class="c">]</text><text x="46.092" y="1.67" class="h">%</text><text x="48.096" y="1.67" class="g">kattest</text><text x="56.112" y="1.67" class="k">lj</text><text x="58.116" y="1.67" class="j">utnja.cc</text><text x="99.198" y="1.67" class="i">exit</text><text x="104.208" y="1.67" class="i">code</text><text x="109.218" y="1.67" class="h">0</text></svg><svg x="2128"><use xlink:href="#a"/><use xlink:href="#b" x="58.996"/><text x="1.002" y="1.67" class="c">[</text><text x="2.004" y="1.67" class="d">empa</text><text x="6.012" y="1.67" class="e">@ares</text><text x="11.022" y="1.67" class="c">]</text><text x="13.026" y="1.67" class="f">~/Code/tddd95/exercise1</text><text x="37.074" y="1.67" class="c">[</text><text x="38.076" y="1.67" class="g">master</text><text x="44.088" y="1.67" class="c">]</text><text x="46.092" y="1.67" class="h">%</text><text x="48.096" y="1.67" class="g">kattest</text><text x="56.112" y="1.67" class="k">lju</text><text x="59.118" y="1.67" class="j">tnja.cc</text><text x="99.198" y="1.67" class="i">exit</text><text x="104.208" y="1.67" class="i">code</text><text x="109.218" y="1.67" class="h">0</text></svg><svg x="2240"><use xlink:href="#a"/><use xlink:href="#b" x="59.996"/><text x="1.002" y="1.67" class="c">[</text><text x="2.004" y="1.67" class="d">empa</text><text x="6.012" y="1.67" class="e">@ares</text><text x="11.022" y="1.67" class="c">]</text><text x="13.026" y="1.67" class="f">~/Code/tddd95/exercise1</text><text x="37.074" y="1.67" class="c">[</text><text x="38.076" y="1.67" class="g">master</text><text x="44.088" y="1.67" class="c">]</text><text x="46.092" y="1.67" class="h">%</text><text x="48.096" y="1.67" class="g">kattest</text><text x="56.112" y="1.67" class="k">ljut</text><text x="60.12" y="1.67" class="j">nja.cc</text><text x="99.198" y="1.67" class="i">exit</text><text x="104.208" y="1.67" class="i">code</text><text x="109.218" y="1.67" class="h">0</text></svg><svg x="2352"><use xlink:href="#a"/><use xlink:href="#b" x="60.996"/><text x="1.002" y="1.67" class="c">[</text><text x="2.004" y="1.67" class="d">empa</text><text x="6.012" y="1.67" class="e">@ares</text><text x="11.022" y="1.67" class="c">]</text><text x="13.026" y="1.67" class="f">~/Code/tddd95/exercise1</text><text x="37.074" y="1.67" class="c">[</text><text x="38.076" y="1.67" class="g">master</text><text x="44.088" y="1.67" class="c">]</text><text x="46.092" y="1.67" class="h">%</text><text x="48.096" y="1.67" class="g">kattest</text><text x="56.112" y="1.67" class="k">ljutn</text><text x="61.122" y="1.67" class="j">ja.cc</text><text x="99.198" y="1.67" class="i">exit</text><text x="104.208" y="1.67" class="i">code</text><text x="109.218" y="1.67" class="h">0</text></svg><svg x="2464"><use xlink:href="#a"/><use xlink:href="#b" x="61.996"/><text x="1.002" y="1.67" class="c">[</text><text x="2.004" y="1.67" class="d">empa</text><text x="6.012" y="1.67" class="e">@ares</text><text x="11.022" y="1.67" class="c">]</text><text x="13.026" y="1.67" class="f">~/Code/tddd95/exercise1</text><text x="37.074" y="1.67" class="c">[</text><text x="38.076" y="1.67" class="g">master</text><text x="44.088" y="1.67" class="c">]</text><text x="46.092" y="1.67" class="h">%</text><text x="48.096" y="1.67" class="g">kattest</text><text x="56.112" y="1.67" class="k">ljutnj</text><text x="62.124" y="1.67" class="j">a.cc</text><text x="99.198" y="1.67" class="i">exit</text><text x="104.208" y="1.67" class="i">code</text><text x="109.218" y="1.67" class="h">0</text></svg><svg x="2576"><use xlink:href="#a"/><use xlink:href="#b" x="62.996"/><text x="1.002" y="1.67" class="c">[</text><text x="2.004" y="1.67" class="d">empa</text><text x="6.012" y="1.67" class="e">@ares</text><text x="11.022" y="1.67" class="c">]</text><text x="13.026" y="1.67" class="f">~/Code/tddd95/exercise1</text><text x="37.074" y="1.67" class="c">[</text><text x="38.076" y="1.67" class="g">master</text><text x="44.088" y="1.67" class="c">]</text><text x="46.092" y="1.67" class="h">%</text><text x="48.096" y="1.67" class="g">kattest</text><text x="56.112" y="1.67" class="k">ljutnja</text><text x="63.126" y="1.67" class="j">.cc</text><text x="99.198" y="1.67" class="i">exit</text><text x="104.208" y="1.67" class="i">code</text><text x="109.218" y="1.67" class="h">0</text></svg><svg x="2688"><use xlink:href="#a"/><use xlink:href="#b" x="63.996"/><text x="1.002" y="1.67" class="c">[</text><text x="2.004" y="1.67" class="d">empa</text><text x="6.012" y="1.67" class="e">@ares</text><text x="11.022" y="1.67" class="c">]</text><text x="13.026" y="1.67" class="f">~/Code/tddd95/exercise1</text><text x="37.074" y="1.67" class="c">[</text><text x="38.076" y="1.67" class="g">master</text><text x="44.088" y="1.67" class="c">]</text><text x="46.092" y="1.67" class="h">%</text><text x="48.096" y="1.67" class="g">kattest</text><text x="56.112" y="1.67" class="k">ljutnja.</text><text x="64.128" y="1.67" class="j">cc</text><text x="99.198" y="1.67" class="i">exit</text><text x="104.208" y="1.67" class="i">code</text><text x="109.218" y="1.67" class="h">0</text></svg><svg x="2800"><use xlink:href="#a"/><use xlink:href="#b" x="64.996"/><text x="1.002" y="1.67" class="c">[</text><text x="2.004" y="1.67" class="d">empa</text><text x="6.012" y="1.67" class="e">@ares</text><text x="11.022" y="1.67" class="c">]</text><text x="13.026" y="1.67" class="f">~/Code/tddd95/exercise1</text><text x="37.074" y="1.67" class="c">[</text><text x="38.076" y="1.67" class="g">master</text><text x="44.088" y="1.67" class="c">]</text><text x="46.092" y="1.67" class="h">%</text><text x="48.096" y="1.67" class="g">kattest</text><text x="56.112" y="1.67" class="k">ljutnja.c</text><text x="65.13" y="1.67" class="j">c</text><text x="99.198" y="1.67" class="i">exit</text><text x="104.208" y="1.67" class="i">code</text><text x="109.218" y="1.67" class="h">0</text></svg><svg x="2912"><use xlink:href="#a"/><use xlink:href="#b" x="65.996"/><use xlink:href="#4"/></svg><svg x="3024"><use xlink:href="#a"/><use xlink:href="#b" x="65.996"/><use xlink:href="#4"/></svg><svg x="3136"><use xlink:href="#a"/><use xlink:href="#b" x="-.004" y="2.146"/><use xlink:href="#4"/></svg><svg x="3248"><use xlink:href="#a"/><use xlink:href="#b" x="-.004" y="4.317"/><use xlink:href="#4"/><use xlink:href="#5" y="2.171"/></svg><svg x="3360"><use xlink:href="#a"/><use xlink:href="#b" x="44.996" y="4.317"/><use xlink:href="#4"/><use xlink:href="#5" y="2.171"/><text y="6.012" class="h">Downloading</text><text x="12.024" y="6.012" class="h">sample</text><text x="19.038" y="6.012" class="h">data</text><text x="24.048" y="6.012" class="h">for</text><text x="28.056" y="6.012" class="h">problem</text><text x="36.072" y="6.012" class="h">ljutnja</text><text x="44.088" y="6.012" class="f">⠋</text></svg><svg x="3472"><use xlink:href="#a"/><use xlink:href="#b" x="43.996" y="4.317"/><use xlink:href="#4"/><use xlink:href="#5" y="2.171"/><text y="6.012" class="h">Downloading</text><text x="12.024" y="6.012" class="h">sample</text><text x="19.038" y="6.012" class="h">data</text><text x="24.048" y="6.012" class="h">for</text><text x="28.056" y="6.012" class="h">problem</text><text x="36.072" y="6.012" class="h">ljutnja</text></svg><svg x="3584"><use xlink:href="#a"/><use xlink:href="#b" x="-.004" y="6.488"/><use xlink:href="#4"/><use xlink:href="#5" y="2.171"/><use xlink:href="#6" y="4.342"/></svg><svg x="3696"><use xlink:href="#a"/><use xlink:href="#b" x="21.996" y="6.488"/><use xlink:href="#4"/><use xlink:href="#5" y="2.171"/><use xlink:href="#6" y="4.342"/><text y="8.183" class="h">Compiling</text><text x="10.02" y="8.183" class="h">ljutnja.cc</text><text x="21.042" y="8.183" class="f">⠋</text></svg><svg x="3808"><use xlink:href="#a"/><use xlink:href="#b" x="21.996" y="6.488"/><use xlink:href="#4"/><use xlink:href="#5" y="2.171"/><use xlink:href="#6" y="4.342"/><text y="8.183" class="h">Compiling</text><text x="10.02" y="8.183" class="h">ljutnja.cc</text><text x="21.042" y="8.183" class="f">⠙</text></svg><svg x="3920"><use xlink:href="#a"/><use xlink:href="#b" x="21.996" y="6.488"/><use xlink:href="#4"/><use xlink:href="#5" y="2.171"/><use xlink:href="#6" y="4.342"/><text y="8.183" class="h">Compiling</text><text x="10.02" y="8.183" class="h">ljutnja.cc</text><text x="21.042" y="8.183" class="f">⠚</text></svg><svg x="4032"><use xlink:href="#a"/><use xlink:href="#b" x="21.996" y="6.488"/><use xlink:href="#4"/><use xlink:href="#5" y="2.171"/><use xlink:href="#6" y="4.342"/><text y="8.183" class="h">Compiling</text><text x="10.02" y="8.183" class="h">ljutnja.cc</text><text x="21.042" y="8.183" class="f">⠞</text></svg><svg x="4144"><use xlink:href="#a"/><use xlink:href="#b" x="20.996" y="6.488"/><use xlink:href="#4"/><use xlink:href="#5" y="2.171"/><use xlink:href="#6" y="4.342"/><text y="8.183" class="h">Compiling</text><text x="10.02" y="8.183" class="h">ljutnja.cc</text></svg><svg x="4256"><use xlink:href="#a"/><use xlink:href="#b" x="-.004" y="8.659"/><use xlink:href="#4"/><use xlink:href="#5" y="2.171"/><use xlink:href="#6" y="4.342"/><use xlink:href="#7" y="6.513"/></svg><svg x="4368"><use xlink:href="#a"/><use xlink:href="#b" x="47.996" y="8.659"/><use xlink:href="#4"/><use xlink:href="#5" y="2.171"/><use xlink:href="#6" y="4.342"/><use xlink:href="#7" y="6.513"/><text y="10.354" class="h">Running</text><text x="8.016" y="10.354" class="h">ljutnja</text><text x="16.032" y="10.354" class="h">with</text><text x="21.042" y="10.354" class="h">sample</text><text x="28.056" y="10.354" class="h">input</text><text x="34.068" y="10.354" class="h">ljutnja.1.in</text><text x="47.094" y="10.354" class="f">⠋</text></svg><svg x="4480"><use xlink:href="#a"/><use xlink:href="#b" x="-.004" y="10.83"/><use xlink:href="#4"/><use xlink:href="#5" y="2.171"/><use xlink:href="#6" y="4.342"/><use xlink:href="#7" y="6.513"/><use xlink:href="#8" y="8.684"/></svg><svg x="4592"><use xlink:href="#a"/><use xlink:href="#b" x="47.996" y="10.83"/><use xlink:href="#4"/><use xlink:href="#5" y="2.171"/><use xlink:href="#6" y="4.342"/><use xlink:href="#7" y="6.513"/><use xlink:href="#8" y="8.684"/><text y="12.525" class="h">Running</text><text x="8.016" y="12.525" class="h">ljutnja</text><text x="16.032" y="12.525" class="h">with</text><text x="21.042" y="12.525" class="h">sample</text><text x="28.056" y="12.525" class="h">input</text><text x="34.068" y="12.525" class="h">ljutnja.2.in</text><text x="47.094" y="12.525" class="f">⠋</text></svg><svg x="4704"><use xlink:href="#a"/><use xlink:href="#b" x="-.004" y="13.001"/><use xlink:href="#4"/><use xlink:href="#5" y="2.171"/><use xlink:href="#6" y="4.342"/><use xlink:href="#7" y="6.513"/><use xlink:href="#8" y="8.684"/><use xlink:href="#9" y="10.855"/></svg><svg x="4816"><use xlink:href="#a"/><use xlink:href="#b" x="-.004" y="13.001"/><use xlink:href="#4"/><use xlink:href="#5" y="2.171"/><use xlink:href="#6" y="4.342"/><use xlink:href="#7" y="6.513"/><use xlink:href="#8" y="8.684"/><use xlink:href="#9" y="10.855"/></svg><svg x="4928"><use xlink:href="#a"/><use xlink:href="#b" x="-.004" y="13.001"/><use xlink:href="#4"/><use xlink:href="#5" y="2.171"/><use xlink:href="#6" y="4.342"/><use xlink:href="#7" y="6.513"/><use xlink:href="#8" y="8.684"/><use xlink:href="#9" y="10.855"/></svg><svg x="5040"><use xlink:href="#a"/><use xlink:href="#b" x="47.996" y="13.001"/><use xlink:href="#4"/><use xlink:href="#5" y="2.171"/><use xlink:href="#6" y="4.342"/><use xlink:href="#7" y="6.513"/><use xlink:href="#8" y="8.684"/><use xlink:href="#9" y="10.855"/><use xlink:href="#1" y="13.026"/></svg><svg x="5152"><use xlink:href="#a"/><use xlink:href="#b" x="47.996" y="13.001"/><use xlink:href="#4"/><use xlink:href="#5" y="2.171"/><use xlink:href="#6" y="4.342"/><use xlink:href="#7" y="6.513"/><use xlink:href="#8" y="8.684"/><use xlink:href="#9" y="10.855"/><use xlink:href="#2" y="13.026"/></svg><svg x="5264"><use xlink:href="#a"/><use xlink:href="#b" x="47.996" y="13.001"/><use xlink:href="#4"/><use xlink:href="#5" y="2.171"/><use xlink:href="#6" y="4.342"/><use xlink:href="#7" y="6.513"/><use xlink:href="#8" y="8.684"/><use xlink:href="#9" y="10.855"/><use xlink:href="#2" y="13.026"/></svg><svg x="5376"><use xlink:href="#a"/><use xlink:href="#b" x="47.996" y="13.001"/><use xlink:href="#4"/><use xlink:href="#5" y="2.171"/><use xlink:href="#6" y="4.342"/><use xlink:href="#7" y="6.513"/><use xlink:href="#8" y="8.684"/><use xlink:href="#9" y="10.855"/><use xlink:href="#2" y="13.026"/></svg><svg x="5488"><use xlink:href="#a"/><use xlink:href="#b" x="47.996" y="13.001"/><use xlink:href="#4"/><use xlink:href="#5" y="2.171"/><use xlink:href="#6" y="4.342"/><use xlink:href="#7" y="6.513"/><use xlink:href="#8" y="8.684"/><use xlink:href="#9" y="10.855"/><use xlink:href="#2" y="13.026"/></svg><svg x="5600"><use xlink:href="#a"/><use xlink:href="#b" x="-.004" y="15.172"/><use xlink:href="#4"/><use xlink:href="#5" y="2.171"/><use xlink:href="#6" y="4.342"/><use xlink:href="#7" y="6.513"/><use xlink:href="#8" y="8.684"/><use xlink:href="#9" y="10.855"/><use xlink:href="#2" y="13.026"/></svg></svg></g></g></svg></svg>