<svg xmlns="http://www.w3.org/2000/svg" xmlns:xlink="http://www.w3.org/1999/xlink" width="1440" height="803.27"><rect width="1440" height="803.27" rx="0" ry="0" class="a"/><svg height="803.27" viewBox="0 0 144 80.327" width="1440" xmlns="http://www.w3.org/2000/svg" xmlns:xlink="http://www.w3.org/1999/xlink"><style>@keyframes p{0%{transform:translateX(0)}2.5%{transform:translateX(-144px)}2.8%{transform:translateX(-288px)}3%{transform:translateX(-864px)}13.2%{transform:translateX(-1152px)}16%{transform:translateX(-1296px)}18.2%{transform:translateX(-1440px)}21%{transform:translateX(-1584px)}28%{transform:translateX(-1728px)}33.8%{transform:translateX(-2016px)}36.4%{transform:translateX(-2304px)}38.1%{transform:translateX(-2736px)}39.8%{transform:translateX(-3024px)}40.2%{transform:translateX(-3168px)}40.3%{transform:translateX(-3312px)}40.5%{transform:translateX(-3888px)}to{transform:translateX(-4032px)}}.a{fill:#282d35}.c{fill:#d290e4}.c,.d,.e,.f,.g{white-space:pre}.d{fill:#a8cc8c;font-weight:700}.e,.f,.g{fill:#71bef2}.f,.g{fill:#dbab79}.g{fill:#a8cc8c}.h,.i{fill:#b9c0cb}.h{white-space:pre}.i{font-weight:700}.i,.k{white-space:pre}.k,.l{fill:#e88388}.m{fill:#dbab79}.r,.s{white-space:pre}.r{fill:#e88388;font-weight:700}.s{fill:#6f7783}</style><g font-family="Monaco,Consolas,Menlo,'Bitstream Vera Sans Mono','Powerline Symbols',monospace" font-size="1.67"><defs><symbol id="1"><text x="1.002" y="1.67" class="c">[</text><text x="2.004" y="1.67" class="d">empa</text><text x="6.012" y="1.67" class="e">@ares</text><text x="11.022" y="1.67" class="c">]</text><text x="13.026" y="1.67" class="f">~/Code/tddd95/exercise1</text><text x="37.074" y="1.67" class="c">[</text><text x="38.076" y="1.67" class="g">master</text><text x="44.088" y="1.67" class="c">]</text><text x="46.092" y="1.67" class="h">%</text><text x="131.262" y="1.67" class="i">exit</text><text x="136.272" y="1.67" class="i">code</text><text x="141.282" y="1.67" class="h">0</text></symbol><symbol id="2"><text x="1.002" y="1.67" class="c">[</text><text x="2.004" y="1.67" class="d">empa</text><text x="6.012" y="1.67" class="e">@ares</text><text x="11.022" y="1.67" class="c">]</text><text x="13.026" y="1.67" class="f">~/Code/tddd95/exercise1</text><text x="37.074" y="1.67" class="c">[</text><text x="38.076" y="1.67" class="g">master</text><text x="44.088" y="1.67" class="c">]</text><text x="46.092" y="1.67" class="h">%</text><text x="48.096" y="1.67" class="g">kattest</text><text x="56.112" y="1.67" style="white-space:pre" fill="#b9c0cb" text-decoration="underline">aspenavenue.py</text><text x="131.262" y="1.67" class="i">exit</text><text x="136.272" y="1.67" class="i">code</text><text x="141.282" y="1.67" class="h">0</text></symbol><symbol id="3"><text y="1.67" class="h">No</text><text x="3.006" y="1.67" class="h">problem</text><text x="11.022" y="1.67" class="h">name</text><text x="16.032" y="1.67" class="h">specified,</text><text x="27.054" y="1.67" class="h">guessing</text><text x="36.072" y="1.67" class="h">&apos;aspenavenue&apos;</text></symbol><symbol id="4"><text y="1.67" class="h">Using</text><text x="6.012" y="1.67" class="h">cached</text><text x="13.026" y="1.67" class="h">sample</text><text x="20.04" y="1.67" class="h">data</text><text x="25.05" y="1.67" class="h">for</text><text x="29.058" y="1.67" class="h">problem</text><text x="37.074" y="1.67" class="h">aspenavenue</text></symbol><symbol id="5"><text y="1.67" class="h">Running</text><text x="8.016" y="1.67" class="h">aspenavenue</text><text x="20.04" y="1.67" class="h">with</text><text x="25.05" y="1.67" class="h">sample</text><text x="32.064" y="1.67" class="h">input</text><text x="38.076" y="1.67" class="h">avenue-1.in</text><text x="50.1" y="1.67" class="k">✗</text></symbol><symbol id="6"><text y="1.67" class="f">Input:</text></symbol><symbol id="7"><text x="2.004" y="1.67" class="h">4</text></symbol><symbol id="8"><text x="2.004" y="1.67" class="h">10</text><text x="5.01" y="1.67" class="h">1</text></symbol><symbol id="9"><text x="2.004" y="1.67" class="h">1</text></symbol><symbol id="10"><text x="2.004" y="1.67" class="h">0</text></symbol><symbol id="11"><text x="2.004" y="1.67" class="h">10</text></symbol><symbol id="12"><text y="1.67" class="f">Diff:</text></symbol><symbol id="13"><path class="l" d="M0 0h2v2.171H0z"/><text y="1.67" class="h">-</text><text x="2.004" y="1.67" class="h">2.4142135624</text></symbol><symbol id="14"><path class="m" d="M0 0h2v2.171H0z"/><text y="1.67" class="h">?</text><text x="13.026" y="1.67" class="h">^</text></symbol><symbol id="15"><path class="l" d="M0 0h2v2.171H0z"/><text y="1.67" class="h">+</text><text x="2.004" y="1.67" class="h">2.414213562373095</text></symbol><symbol id="16"><path class="m" d="M0 0h2v2.171H0z"/><text y="1.67" class="h">?</text><text x="13.026" y="1.67" class="h">^^^^^^</text></symbol><symbol id="17"><text y="1.67" class="h">Running</text><text x="8.016" y="1.67" class="h">aspenavenue</text><text x="20.04" y="1.67" class="h">with</text><text x="25.05" y="1.67" class="h">sample</text><text x="32.064" y="1.67" class="h">input</text><text x="38.076" y="1.67" class="h">avenue-2.in</text><text x="50.1" y="1.67" class="k">✗</text></symbol><symbol id="18"><text x="2.004" y="1.67" class="h">6</text></symbol><symbol id="19"><text x="2.004" y="1.67" class="h">9</text></symbol><symbol id="20"><text x="2.004" y="1.67" class="h">3</text></symbol><symbol id="21"><text x="2.004" y="1.67" class="h">5</text></symbol><symbol id="22"><path class="l" d="M0 0h2v2.171H0z"/><text y="1.67" class="h">-</text><text x="2.004" y="1.67" class="h">9.2853832858</text></symbol><symbol id="23"><path class="l" d="M0 0h2v2.171H0z"/><text y="1.67" class="h">+</text><text x="2.004" y="1.67" class="h">9.28538328578604</text></symbol><symbol id="24"><path class="m" d="M0 0h2v2.171H0z"/><text y="1.67" class="h">?</text><text x="13.026" y="1.67" class="h">+</text><text x="15.03" y="1.67" class="h">+++</text></symbol><symbol id="a"><path fill="transparent" d="M0 0h144v37H0z"/></symbol><symbol id="b"><path fill="#6f7683" d="M0 0h1.102v2.171H0z"/></symbol></defs><path class="a" d="M0 0h144v80.327H0z"/><g style="animation-duration:4.564388s;animation-iteration-count:infinite;animation-name:p;animation-timing-function:steps(1,end)"><svg width="4176"><svg><use xlink:href="#a"/><use xlink:href="#b" x="-.004"/></svg><svg x="144"><use xlink:href="#a"/><use xlink:href="#b" x="-.004"/></svg><svg x="288"><use xlink:href="#a"/><use xlink:href="#b" x="-.004"/></svg><svg x="432"><use xlink:href="#a"/><use xlink:href="#b" x="47.996"/><use xlink:href="#1"/></svg><svg x="576"><use xlink:href="#a"/><use xlink:href="#b" x="47.996"/><use xlink:href="#1"/></svg><svg x="720"><use xlink:href="#a"/><use xlink:href="#b" x="47.996"/><use xlink:href="#1"/></svg><svg x="864"><use xlink:href="#a"/><use xlink:href="#b" x="47.996"/><use xlink:href="#1"/></svg><svg x="1008"><use xlink:href="#a"/><use xlink:href="#b" x="48.996"/><text x="1.002" y="1.67" class="c">[</text><text x="2.004" y="1.67" class="d">empa</text><text x="6.012" y="1.67" class="e">@ares</text><text x="11.022" y="1.67" class="c">]</text><text x="13.026" y="1.67" class="f">~/Code/tddd95/exercise1</text><text x="37.074" y="1.67" class="c">[</text><text x="38.076" y="1.67" class="g">master</text><text x="44.088" y="1.67" class="c">]</text><text x="46.092" y="1.67" class="h">%</text><text x="48.096" y="1.67" class="r">k</text><text x="131.262" y="1.67" class="i">exit</text><text x="136.272" y="1.67" class="i">code</text><text x="141.282" y="1.67" class="h">0</text></svg><svg x="1152"><use xlink:href="#a"/><use xlink:href="#b" x="48.996"/><text x="1.002" y="1.67" class="c">[</text><text x="2.004" y="1.67" class="d">empa</text><text x="6.012" y="1.67" class="e">@ares</text><text x="11.022" y="1.67" class="c">]</text><text x="13.026" y="1.67" class="f">~/Code/tddd95/exercise1</text><text x="37.074" y="1.67" class="c">[</text><text x="38.076" y="1.67" class="g">master</text><text x="44.088" y="1.67" class="c">]</text><text x="46.092" y="1.67" class="h">%</text><text x="48.096" y="1.67" class="r">k</text><text x="49.098" y="1.67" class="s">attest</text><text x="56.112" y="1.67" class="s">aspenavenue.py</text><text x="131.262" y="1.67" class="i">exit</text><text x="136.272" y="1.67" class="i">code</text><text x="141.282" y="1.67" class="h">0</text></svg><svg x="1296"><use xlink:href="#a"/><use xlink:href="#b" x="49.996"/><text x="1.002" y="1.67" class="c">[</text><text x="2.004" y="1.67" class="d">empa</text><text x="6.012" y="1.67" class="e">@ares</text><text x="11.022" y="1.67" class="c">]</text><text x="13.026" y="1.67" class="f">~/Code/tddd95/exercise1</text><text x="37.074" y="1.67" class="c">[</text><text x="38.076" y="1.67" class="g">master</text><text x="44.088" y="1.67" class="c">]</text><text x="46.092" y="1.67" class="h">%</text><text x="48.096" y="1.67" class="r">ka</text><text x="50.1" y="1.67" class="s">ttest</text><text x="56.112" y="1.67" class="s">aspenavenue.py</text><text x="131.262" y="1.67" class="i">exit</text><text x="136.272" y="1.67" class="i">code</text><text x="141.282" y="1.67" class="h">0</text></svg><svg x="1440"><use xlink:href="#a"/><use xlink:href="#b" x="50.996"/><text x="1.002" y="1.67" class="c">[</text><text x="2.004" y="1.67" class="d">empa</text><text x="6.012" y="1.67" class="e">@ares</text><text x="11.022" y="1.67" class="c">]</text><text x="13.026" y="1.67" class="f">~/Code/tddd95/exercise1</text><text x="37.074" y="1.67" class="c">[</text><text x="38.076" y="1.67" class="g">master</text><text x="44.088" y="1.67" class="c">]</text><text x="46.092" y="1.67" class="h">%</text><text x="48.096" y="1.67" class="r">kat</text><text x="51.102" y="1.67" class="s">test</text><text x="56.112" y="1.67" class="s">aspenavenue.py</text><text x="131.262" y="1.67" class="i">exit</text><text x="136.272" y="1.67" class="i">code</text><text x="141.282" y="1.67" class="h">0</text></svg><svg x="1584"><use xlink:href="#a"/><use xlink:href="#b" x="51.996"/><text x="1.002" y="1.67" class="c">[</text><text x="2.004" y="1.67" class="d">empa</text><text x="6.012" y="1.67" class="e">@ares</text><text x="11.022" y="1.67" class="c">]</text><text x="13.026" y="1.67" class="f">~/Code/tddd95/exercise1</text><text x="37.074" y="1.67" class="c">[</text><text x="38.076" y="1.67" class="g">master</text><text x="44.088" y="1.67" class="c">]</text><text x="46.092" y="1.67" class="h">%</text><text x="48.096" y="1.67" class="r">katt</text><text x="52.104" y="1.67" class="s">est</text><text x="56.112" y="1.67" class="s">aspenavenue.py</text><text x="131.262" y="1.67" class="i">exit</text><text x="136.272" y="1.67" class="i">code</text><text x="141.282" y="1.67" class="h">0</text></svg><svg x="1728"><use xlink:href="#a"/><use xlink:href="#b" x="69.996"/><use xlink:href="#2"/></svg><svg x="1872"><use xlink:href="#a"/><use xlink:href="#b" x="69.996"/><use xlink:href="#2"/></svg><svg x="2016"><use xlink:href="#a"/><use xlink:href="#b" x="-.004" y="2.146"/><use xlink:href="#2"/></svg><svg x="2160"><use xlink:href="#a"/><use xlink:href="#b" x="-.004" y="4.317"/><use xlink:href="#2"/><use xlink:href="#3" y="2.171"/></svg><svg x="2304"><use xlink:href="#a"/><use xlink:href="#b" x="50.996" y="6.488"/><use xlink:href="#2"/><use xlink:href="#3" y="2.171"/><use xlink:href="#4" y="4.342"/><text y="8.183" class="h">Running</text><text x="8.016" y="8.183" class="h">aspenavenue</text><text x="20.04" y="8.183" class="h">with</text><text x="25.05" y="8.183" class="h">sample</text><text x="32.064" y="8.183" class="h">input</text><text x="38.076" y="8.183" class="h">avenue-1.in</text><text x="50.1" y="8.183" class="f">⠋</text></svg><svg x="2448"><use xlink:href="#a"/><use xlink:href="#b" x="-.004" y="28.198"/><use xlink:href="#2"/><use xlink:href="#3" y="2.171"/><use xlink:href="#4" y="4.342"/><use xlink:href="#5" y="6.513"/><use xlink:href="#6" y="8.684"/><use xlink:href="#7" y="10.855"/><use xlink:href="#8" y="13.026"/><use xlink:href="#9" y="15.197"/><use xlink:href="#10" y="17.368"/><use xlink:href="#11" y="19.539"/><use xlink:href="#11" y="21.71"/><use xlink:href="#12" y="23.881"/><use xlink:href="#13" y="26.052"/></svg><svg x="2592"><use xlink:href="#a"/><use xlink:href="#b" x="-.004" y="39.053"/><use xlink:href="#2"/><use xlink:href="#3" y="2.171"/><use xlink:href="#4" y="4.342"/><use xlink:href="#5" y="6.513"/><use xlink:href="#6" y="8.684"/><use xlink:href="#7" y="10.855"/><use xlink:href="#8" y="13.026"/><use xlink:href="#9" y="15.197"/><use xlink:href="#10" y="17.368"/><use xlink:href="#11" y="19.539"/><use xlink:href="#11" y="21.71"/><use xlink:href="#12" y="23.881"/><use xlink:href="#13" y="26.052"/><use xlink:href="#14" y="28.223"/><use xlink:href="#15" y="32.565"/><use xlink:href="#16" y="34.736"/></svg><svg x="2736"><use xlink:href="#a"/><use xlink:href="#b" x="50.996" y="39.053"/><use xlink:href="#2"/><use xlink:href="#3" y="2.171"/><use xlink:href="#4" y="4.342"/><use xlink:href="#5" y="6.513"/><use xlink:href="#6" y="8.684"/><use xlink:href="#7" y="10.855"/><use xlink:href="#8" y="13.026"/><use xlink:href="#9" y="15.197"/><use xlink:href="#10" y="17.368"/><use xlink:href="#11" y="19.539"/><use xlink:href="#11" y="21.71"/><use xlink:href="#12" y="23.881"/><use xlink:href="#13" y="26.052"/><use xlink:href="#14" y="28.223"/><use xlink:href="#15" y="32.565"/><use xlink:href="#16" y="34.736"/><text y="40.748" class="h">Running</text><text x="8.016" y="40.748" class="h">aspenavenue</text><text x="20.04" y="40.748" class="h">with</text><text x="25.05" y="40.748" class="h">sample</text><text x="32.064" y="40.748" class="h">input</text><text x="38.076" y="40.748" class="h">avenue-2.in</text><text x="50.1" y="40.748" class="f">⠋</text></svg><svg x="2880"><use xlink:href="#a"/><use xlink:href="#b" x="49.996" y="39.053"/><use xlink:href="#2"/><use xlink:href="#3" y="2.171"/><use xlink:href="#4" y="4.342"/><use xlink:href="#5" y="6.513"/><use xlink:href="#6" y="8.684"/><use xlink:href="#7" y="10.855"/><use xlink:href="#8" y="13.026"/><use xlink:href="#9" y="15.197"/><use xlink:href="#10" y="17.368"/><use xlink:href="#11" y="19.539"/><use xlink:href="#11" y="21.71"/><use xlink:href="#12" y="23.881"/><use xlink:href="#13" y="26.052"/><use xlink:href="#14" y="28.223"/><use xlink:href="#15" y="32.565"/><use xlink:href="#16" y="34.736"/><text y="40.748" class="h">Running</text><text x="8.016" y="40.748" class="h">aspenavenue</text><text x="20.04" y="40.748" class="h">with</text><text x="25.05" y="40.748" class="h">sample</text><text x="32.064" y="40.748" class="h">input</text><text x="38.076" y="40.748" class="h">avenue-2.in</text></svg><svg x="3024"><use xlink:href="#a"/><use xlink:href="#b" x="-.004" y="71.618"/><use xlink:href="#2"/><use xlink:href="#3" y="2.171"/><use xlink:href="#4" y="4.342"/><use xlink:href="#5" y="6.513"/><use xlink:href="#6" y="8.684"/><use xlink:href="#7" y="10.855"/><use xlink:href="#8" y="13.026"/><use xlink:href="#9" y="15.197"/><use xlink:href="#10" y="17.368"/><use xlink:href="#11" y="19.539"/><use xlink:href="#11" y="21.71"/><use xlink:href="#12" y="23.881"/><use xlink:href="#13" y="26.052"/><use xlink:href="#14" y="28.223"/><use xlink:href="#15" y="32.565"/><use xlink:href="#16" y="34.736"/><use xlink:href="#17" y="39.078"/><use xlink:href="#6" y="41.249"/><use xlink:href="#18" y="43.42"/><use xlink:href="#8" y="45.591"/><use xlink:href="#10" y="47.762"/><use xlink:href="#19" y="49.933"/><use xlink:href="#20" y="52.104"/><use xlink:href="#21" y="54.275"/><use xlink:href="#21" y="56.446"/><use xlink:href="#18" y="58.617"/><use xlink:href="#12" y="60.788"/><use xlink:href="#22" y="62.959"/><use xlink:href="#23" y="65.13"/><use xlink:href="#24" y="67.301"/></svg><svg x="3168"><use xlink:href="#a"/><use xlink:href="#b" x="-.004" y="71.618"/><use xlink:href="#2"/><use xlink:href="#3" y="2.171"/><use xlink:href="#4" y="4.342"/><use xlink:href="#5" y="6.513"/><use xlink:href="#6" y="8.684"/><use xlink:href="#7" y="10.855"/><use xlink:href="#8" y="13.026"/><use xlink:href="#9" y="15.197"/><use xlink:href="#10" y="17.368"/><use xlink:href="#11" y="19.539"/><use xlink:href="#11" y="21.71"/><use xlink:href="#12" y="23.881"/><use xlink:href="#13" y="26.052"/><use xlink:href="#14" y="28.223"/><use xlink:href="#15" y="32.565"/><use xlink:href="#16" y="34.736"/><use xlink:href="#17" y="39.078"/><use xlink:href="#6" y="41.249"/><use xlink:href="#18" y="43.42"/><use xlink:href="#8" y="45.591"/><use xlink:href="#10" y="47.762"/><use xlink:href="#19" y="49.933"/><use xlink:href="#20" y="52.104"/><use xlink:href="#21" y="54.275"/><use xlink:href="#21" y="56.446"/><use xlink:href="#18" y="58.617"/><use xlink:href="#12" y="60.788"/><use xlink:href="#22" y="62.959"/><use xlink:href="#23" y="65.13"/><use xlink:href="#24" y="67.301"/></svg><svg x="3312"><use xlink:href="#a"/><use xlink:href="#b" x="-.004" y="71.618"/><use xlink:href="#2"/><use xlink:href="#3" y="2.171"/><use xlink:href="#4" y="4.342"/><use xlink:href="#5" y="6.513"/><use xlink:href="#6" y="8.684"/><use xlink:href="#7" y="10.855"/><use xlink:href="#8" y="13.026"/><use xlink:href="#9" y="15.197"/><use xlink:href="#10" y="17.368"/><use xlink:href="#11" y="19.539"/><use xlink:href="#11" y="21.71"/><use xlink:href="#12" y="23.881"/><use xlink:href="#13" y="26.052"/><use xlink:href="#14" y="28.223"/><use xlink:href="#15" y="32.565"/><use xlink:href="#16" y="34.736"/><use xlink:href="#17" y="39.078"/><use xlink:href="#6" y="41.249"/><use xlink:href="#18" y="43.42"/><use xlink:href="#8" y="45.591"/><use xlink:href="#10" y="47.762"/><use xlink:href="#19" y="49.933"/><use xlink:href="#20" y="52.104"/><use xlink:href="#21" y="54.275"/><use xlink:href="#21" y="56.446"/><use xlink:href="#18" y="58.617"/><use xlink:href="#12" y="60.788"/><use xlink:href="#22" y="62.959"/><use xlink:href="#23" y="65.13"/><use xlink:href="#24" y="67.301"/></svg><svg x="3456"><use xlink:href="#a"/><use xlink:href="#b" x="47.996" y="71.618"/><use xlink:href="#2"/><use xlink:href="#3" y="2.171"/><use xlink:href="#4" y="4.342"/><use xlink:href="#5" y="6.513"/><use xlink:href="#6" y="8.684"/><use xlink:href="#7" y="10.855"/><use xlink:href="#8" y="13.026"/><use xlink:href="#9" y="15.197"/><use xlink:href="#10" y="17.368"/><use xlink:href="#11" y="19.539"/><use xlink:href="#11" y="21.71"/><use xlink:href="#12" y="23.881"/><use xlink:href="#13" y="26.052"/><use xlink:href="#14" y="28.223"/><use xlink:href="#15" y="32.565"/><use xlink:href="#16" y="34.736"/><use xlink:href="#17" y="39.078"/><use xlink:href="#6" y="41.249"/><use xlink:href="#18" y="43.42"/><use xlink:href="#8" y="45.591"/><use xlink:href="#10" y="47.762"/><use xlink:href="#19" y="49.933"/><use xlink:href="#20" y="52.104"/><use xlink:href="#21" y="54.275"/><use xlink:href="#21" y="56.446"/><use xlink:href="#18" y="58.617"/><use xlink:href="#12" y="60.788"/><use xlink:href="#22" y="62.959"/><use xlink:href="#23" y="65.13"/><use xlink:href="#24" y="67.301"/><use xlink:href="#1" y="71.643"/></svg><svg x="3600"><use xlink:href="#a"/><use xlink:href="#b" x="47.996" y="71.618"/><use xlink:href="#2"/><use xlink:href="#3" y="2.171"/><use xlink:href="#4" y="4.342"/><use xlink:href="#5" y="6.513"/><use xlink:href="#6" y="8.684"/><use xlink:href="#7" y="10.855"/><use xlink:href="#8" y="13.026"/><use xlink:href="#9" y="15.197"/><use xlink:href="#10" y="17.368"/><use xlink:href="#11" y="19.539"/><use xlink:href="#11" y="21.71"/><use xlink:href="#12" y="23.881"/><use xlink:href="#13" y="26.052"/><use xlink:href="#14" y="28.223"/><use xlink:href="#15" y="32.565"/><use xlink:href="#16" y="34.736"/><use xlink:href="#17" y="39.078"/><use xlink:href="#6" y="41.249"/><use xlink:href="#18" y="43.42"/><use xlink:href="#8" y="45.591"/><use xlink:href="#10" y="47.762"/><use xlink:href="#19" y="49.933"/><use xlink:href="#20" y="52.104"/><use xlink:href="#21" y="54.275"/><use xlink:href="#21" y="56.446"/><use xlink:href="#18" y="58.617"/><use xlink:href="#12" y="60.788"/><use xlink:href="#22" y="62.959"/><use xlink:href="#23" y="65.13"/><use xlink:href="#24" y="67.301"/><use xlink:href="#1" y="71.643"/></svg><svg x="3744"><use xlink:href="#a"/><use xlink:href="#b" x="47.996" y="71.618"/><use xlink:href="#2"/><use xlink:href="#3" y="2.171"/><use xlink:href="#4" y="4.342"/><use xlink:href="#5" y="6.513"/><use xlink:href="#6" y="8.684"/><use xlink:href="#7" y="10.855"/><use xlink:href="#8" y="13.026"/><use xlink:href="#9" y="15.197"/><use xlink:href="#10" y="17.368"/><use xlink:href="#11" y="19.539"/><use xlink:href="#11" y="21.71"/><use xlink:href="#12" y="23.881"/><use xlink:href="#13" y="26.052"/><use xlink:href="#14" y="28.223"/><use xlink:href="#15" y="32.565"/><use xlink:href="#16" y="34.736"/><use xlink:href="#17" y="39.078"/><use xlink:href="#6" y="41.249"/><use xlink:href="#18" y="43.42"/><use xlink:href="#8" y="45.591"/><use xlink:href="#10" y="47.762"/><use xlink:href="#19" y="49.933"/><use xlink:href="#20" y="52.104"/><use xlink:href="#21" y="54.275"/><use xlink:href="#21" y="56.446"/><use xlink:href="#18" y="58.617"/><use xlink:href="#12" y="60.788"/><use xlink:href="#22" y="62.959"/><use xlink:href="#23" y="65.13"/><use xlink:href="#24" y="67.301"/><use xlink:href="#1" y="71.643"/></svg><svg x="3888"><use xlink:href="#a"/><use xlink:href="#b" x="47.996" y="71.618"/><use xlink:href="#2"/><use xlink:href="#3" y="2.171"/><use xlink:href="#4" y="4.342"/><use xlink:href="#5" y="6.513"/><use xlink:href="#6" y="8.684"/><use xlink:href="#7" y="10.855"/><use xlink:href="#8" y="13.026"/><use xlink:href="#9" y="15.197"/><use xlink:href="#10" y="17.368"/><use xlink:href="#11" y="19.539"/><use xlink:href="#11" y="21.71"/><use xlink:href="#12" y="23.881"/><use xlink:href="#13" y="26.052"/><use xlink:href="#14" y="28.223"/><use xlink:href="#15" y="32.565"/><use xlink:href="#16" y="34.736"/><use xlink:href="#17" y="39.078"/><use xlink:href="#6" y="41.249"/><use xlink:href="#18" y="43.42"/><use xlink:href="#8" y="45.591"/><use xlink:href="#10" y="47.762"/><use xlink:href="#19" y="49.933"/><use xlink:href="#20" y="52.104"/><use xlink:href="#21" y="54.275"/><use xlink:href="#21" y="56.446"/><use xlink:href="#18" y="58.617"/><use xlink:href="#12" y="60.788"/><use xlink:href="#22" y="62.959"/><use xlink:href="#23" y="65.13"/><use xlink:href="#24" y="67.301"/><use xlink:href="#1" y="71.643"/></svg><svg x="4032"><use xlink:href="#a"/><use xlink:href="#b" x="-.004" y="73.789"/><use xlink:href="#2"/><use xlink:href="#3" y="2.171"/><use xlink:href="#4" y="4.342"/><use xlink:href="#5" y="6.513"/><use xlink:href="#6" y="8.684"/><use xlink:href="#7" y="10.855"/><use xlink:href="#8" y="13.026"/><use xlink:href="#9" y="15.197"/><use xlink:href="#10" y="17.368"/><use xlink:href="#11" y="19.539"/><use xlink:href="#11" y="21.71"/><use xlink:href="#12" y="23.881"/><use xlink:href="#13" y="26.052"/><use xlink:href="#14" y="28.223"/><use xlink:href="#15" y="32.565"/><use xlink:href="#16" y="34.736"/><use xlink:href="#17" y="39.078"/><use xlink:href="#6" y="41.249"/><use xlink:href="#18" y="43.42"/><use xlink:href="#8" y="45.591"/><use xlink:href="#10" y="47.762"/><use xlink:href="#19" y="49.933"/><use xlink:href="#20" y="52.104"/><use xlink:href="#21" y="54.275"/><use xlink:href="#21" y="56.446"/><use xlink:href="#18" y="58.617"/><use xlink:href="#12" y="60.788"/><use xlink:href="#22" y="62.959"/><use xlink:href="#23" y="65.13"/><use xlink:href="#24" y="67.301"/><use xlink:href="#1" y="71.643"/></svg></svg></g></g></svg></svg>