<svg xmlns="http://www.w3.org/2000/svg" xmlns:xlink="http://www.w3.org/1999/xlink" width="1440" height="803.27"><rect width="1440" height="803.27" rx="0" ry="0" class="a"/><svg height="803.27" viewBox="0 0 144 80.327" width="1440" xmlns="http://www.w3.org/2000/svg" xmlns:xlink="http://www.w3.org/1999/xlink"><style>@keyframes m{0%{transform:translateX(0)}1%{transform:translateX(-144px)}1.1%{transform:translateX(-288px)}1.3%{transform:translateX(-864px)}38.5%{transform:translateX(-1152px)}42.9%{transform:translateX(-1296px)}46.6%{transform:translateX(-1440px)}48.4%{transform:translateX(-1584px)}52%{transform:translateX(-1728px)}59.6%{transform:translateX(-2016px)}61.1%{transform:translateX(-2448px)}64.2%{transform:translateX(-2592px)}67.3%{transform:translateX(-2736px)}70.3%{transform:translateX(-2880px)}73.1%{transform:translateX(-3888px)}73.3%{transform:translateX(-4032px)}73.4%{transform:translateX(-4176px)}73.5%{transform:translateX(-4752px)}to{transform:translateX(-4896px)}}.a{fill:#282d35}.c{fill:#d290e4}.c,.d,.e,.f,.g{white-space:pre}.d{fill:#a8cc8c;font-weight:700}.e,.f,.g{fill:#71bef2}.f,.g{fill:#dbab79}.g{fill:#a8cc8c}.h,.i{fill:#b9c0cb}.h{white-space:pre}.i{font-weight:700}.i,.o,.p{white-space:pre}.o{fill:#e88388;font-weight:700}.p{fill:#6f7783}</style><g font-family="Monaco,Consolas,Menlo,'Bitstream Vera Sans Mono','Powerline Symbols',monospace" font-size="1.67"><defs><symbol id="1"><text x="1.002" y="1.67" class="c">[</text><text x="2.004" y="1.67" class="d">empa</text><text x="6.012" y="1.67" class="e">@ares</text><text x="11.022" y="1.67" class="c">]</text><text x="13.026" y="1.67" class="f">~/Code/tddd95/exercise1</text><text x="37.074" y="1.67" class="c">[</text><text x="38.076" y="1.67" class="g">master</text><text x="44.088" y="1.67" class="c">]</text><text x="46.092" y="1.67" class="h">%</text><text x="131.262" y="1.67" class="i">exit</text><text x="136.272" y="1.67" class="i">code</text><text x="141.282" y="1.67" class="h">0</text></symbol><symbol id="2"><text x="1.002" y="1.67" class="c">[</text><text x="2.004" y="1.67" class="d">empa</text><text x="6.012" y="1.67" class="e">@ares</text><text x="11.022" y="1.67" class="c">]</text><text x="13.026" y="1.67" class="f">~/Code/tddd95/exercise1</text><text x="37.074" y="1.67" class="c">[</text><text x="38.076" y="1.67" class="g">master</text><text x="44.088" y="1.67" class="c">]</text><text x="46.092" y="1.67" class="h">%</text><text x="48.096" y="1.67" class="g">kattest</text><text x="56.112" y="1.67" style="white-space:pre" fill="#b9c0cb" text-decoration="underline">ljutnja.cc</text><text x="131.262" y="1.67" class="i">exit</text><text x="136.272" y="1.67" class="i">code</text><text x="141.282" y="1.67" class="h">0</text></symbol><symbol id="3"><text y="1.67" class="h">No</text><text x="3.006" y="1.67" class="h">problem</text><text x="11.022" y="1.67" class="h">name</text><text x="16.032" y="1.67" class="h">specified,</text><text x="27.054" y="1.67" class="h">guessing</text><text x="36.072" y="1.67" class="h">&apos;ljutnja&apos;</text></symbol><symbol id="4"><text y="1.67" class="h">Using</text><text x="6.012" y="1.67" class="h">cached</text><text x="13.026" y="1.67" class="h">sample</text><text x="20.04" y="1.67" class="h">data</text><text x="25.05" y="1.67" class="h">for</text><text x="29.058" y="1.67" class="h">problem</text><text x="37.074" y="1.67" class="h">ljutnja</text></symbol><symbol id="5"><text y="1.67" class="h">Compiling</text><text x="10.02" y="1.67" class="h">ljutnja.cc</text><text x="21.042" y="1.67" class="g">✓</text></symbol><symbol id="6"><text y="1.67" class="h">Running</text><text x="8.016" y="1.67" class="h">ljutnja</text><text x="16.032" y="1.67" class="h">with</text><text x="21.042" y="1.67" class="h">sample</text><text x="28.056" y="1.67" class="h">input</text><text x="34.068" y="1.67" class="h">ljutnja.1.in</text><text x="47.094" y="1.67" class="g">✓</text></symbol><symbol id="7"><text y="1.67" class="h">Running</text><text x="8.016" y="1.67" class="h">ljutnja</text><text x="16.032" y="1.67" class="h">with</text><text x="21.042" y="1.67" class="h">sample</text><text x="28.056" y="1.67" class="h">input</text><text x="34.068" y="1.67" class="h">ljutnja.2.in</text><text x="47.094" y="1.67" class="g">✓</text></symbol><symbol id="a"><path fill="transparent" d="M0 0h144v37H0z"/></symbol><symbol id="b"><path fill="#6f7683" d="M0 0h1.102v2.171H0z"/></symbol></defs><path class="a" d="M0 0h144v80.327H0z"/><g style="animation-duration:8.114782s;animation-iteration-count:infinite;animation-name:m;animation-timing-function:steps(1,end)"><svg width="5040"><svg><use xlink:href="#a"/><use xlink:href="#b" x="-.004"/></svg><svg x="144"><use xlink:href="#a"/><use xlink:href="#b" x="-.004"/></svg><svg x="288"><use xlink:href="#a"/><use xlink:href="#b" x="-.004"/></svg><svg x="432"><use xlink:href="#a"/><use xlink:href="#b" x="47.996"/><use xlink:href="#1"/></svg><svg x="576"><use xlink:href="#a"/><use xlink:href="#b" x="47.996"/><use xlink:href="#1"/></svg><svg x="720"><use xlink:href="#a"/><use xlink:href="#b" x="47.996"/><use xlink:href="#1"/></svg><svg x="864"><use xlink:href="#a"/><use xlink:href="#b" x="47.996"/><use xlink:href="#1"/></svg><svg x="1008"><use xlink:href="#a"/><use xlink:href="#b" x="48.996"/><text x="1.002" y="1.67" class="c">[</text><text x="2.004" y="1.67" class="d">empa</text><text x="6.012" y="1.67" class="e">@ares</text><text x="11.022" y="1.67" class="c">]</text><text x="13.026" y="1.67" class="f">~/Code/tddd95/exercise1</text><text x="37.074" y="1.67" class="c">[</text><text x="38.076" y="1.67" class="g">master</text><text x="44.088" y="1.67" class="c">]</text><text x="46.092" y="1.67" class="h">%</text><text x="48.096" y="1.67" class="o">k</text><text x="131.262" y="1.67" class="i">exit</text><text x="136.272" y="1.67" class="i">code</text><text x="141.282" y="1.67" class="h">0</text></svg><svg x="1152"><use xlink:href="#a"/><use xlink:href="#b" x="48.996"/><text x="1.002" y="1.67" class="c">[</text><text x="2.004" y="1.67" class="d">empa</text><text x="6.012" y="1.67" class="e">@ares</text><text x="11.022" y="1.67" class="c">]</text><text x="13.026" y="1.67" class="f">~/Code/tddd95/exercise1</text><text x="37.074" y="1.67" class="c">[</text><text x="38.076" y="1.67" class="g">master</text><text x="44.088" y="1.67" class="c">]</text><text x="46.092" y="1.67" class="h">%</text><text x="48.096" y="1.67" class="o">k</text><text x="49.098" y="1.67" class="p">attest</text><text x="56.112" y="1.67" class="p">ljutnja.cc</text><text x="131.262" y="1.67" class="i">exit</text><text x="136.272" y="1.67" class="i">code</text><text x="141.282" y="1.67" class="h">0</text></svg><svg x="1296"><use xlink:href="#a"/><use xlink:href="#b" x="49.996"/><text x="1.002" y="1.67" class="c">[</text><text x="2.004" y="1.67" class="d">empa</text><text x="6.012" y="1.67" class="e">@ares</text><text x="11.022" y="1.67" class="c">]</text><text x="13.026" y="1.67" class="f">~/Code/tddd95/exercise1</text><text x="37.074" y="1.67" class="c">[</text><text x="38.076" y="1.67" class="g">master</text><text x="44.088" y="1.67" class="c">]</text><text x="46.092" y="1.67" class="h">%</text><text x="48.096" y="1.67" class="o">ka</text><text x="50.1" y="1.67" class="p">ttest</text><text x="56.112" y="1.67" class="p">ljutnja.cc</text><text x="131.262" y="1.67" class="i">exit</text><text x="136.272" y="1.67" class="i">code</text><text x="141.282" y="1.67" class="h">0</text></svg><svg x="1440"><use xlink:href="#a"/><use xlink:href="#b" x="50.996"/><text x="1.002" y="1.67" class="c">[</text><text x="2.004" y="1.67" class="d">empa</text><text x="6.012" y="1.67" class="e">@ares</text><text x="11.022" y="1.67" class="c">]</text><text x="13.026" y="1.67" class="f">~/Code/tddd95/exercise1</text><text x="37.074" y="1.67" class="c">[</text><text x="38.076" y="1.67" class="g">master</text><text x="44.088" y="1.67" class="c">]</text><text x="46.092" y="1.67" class="h">%</text><text x="48.096" y="1.67" class="o">kat</text><text x="51.102" y="1.67" class="p">test</text><text x="56.112" y="1.67" class="p">ljutnja.cc</text><text x="131.262" y="1.67" class="i">exit</text><text x="136.272" y="1.67" class="i">code</text><text x="141.282" y="1.67" class="h">0</text></svg><svg x="1584"><use xlink:href="#a"/><use xlink:href="#b" x="51.996"/><text x="1.002" y="1.67" class="c">[</text><text x="2.004" y="1.67" class="d">empa</text><text x="6.012" y="1.67" class="e">@ares</text><text x="11.022" y="1.67" class="c">]</text><text x="13.026" y="1.67" class="f">~/Code/tddd95/exercise1</text><text x="37.074" y="1.67" class="c">[</text><text x="38.076" y="1.67" class="g">master</text><text x="44.088" y="1.67" class="c">]</text><text x="46.092" y="1.67" class="h">%</text><text x="48.096" y="1.67" class="o">katt</text><text x="52.104" y="1.67" class="p">est</text><text x="56.112" y="1.67" class="p">ljutnja.cc</text><text x="131.262" y="1.67" class="i">exit</text><text x="136.272" y="1.67" class="i">code</text><text x="141.282" y="1.67" class="h">0</text></svg><svg x="1728"><use xlink:href="#a"/><use xlink:href="#b" x="65.996"/><use xlink:href="#2"/></svg><svg x="1872"><use xlink:href="#a"/><use xlink:href="#b" x="65.996"/><use xlink:href="#2"/></svg><svg x="2016"><use xlink:href="#a"/><use xlink:href="#b" x="-.004" y="2.146"/><use xlink:href="#2"/></svg><svg x="2160"><use xlink:href="#a"/><use xlink:href="#b" x="-.004" y="4.317"/><use xlink:href="#2"/><use xlink:href="#3" y="2.171"/></svg><svg x="2304"><use xlink:href="#a"/><use xlink:href="#b" x="-.004" y="6.488"/><use xlink:href="#2"/><use xlink:href="#3" y="2.171"/><use xlink:href="#4" y="4.342"/></svg><svg x="2448"><use xlink:href="#a"/><use xlink:href="#b" x="21.996" y="6.488"/><use xlink:href="#2"/><use xlink:href="#3" y="2.171"/><use xlink:href="#4" y="4.342"/><text y="8.183" class="h">Compiling</text><text x="10.02" y="8.183" class="h">ljutnja.cc</text><text x="21.042" y="8.183" class="f">⠋</text></svg><svg x="2592"><use xlink:href="#a"/><use xlink:href="#b" x="21.996" y="6.488"/><use xlink:href="#2"/><use xlink:href="#3" y="2.171"/><use xlink:href="#4" y="4.342"/><text y="8.183" class="h">Compiling</text><text x="10.02" y="8.183" class="h">ljutnja.cc</text><text x="21.042" y="8.183" class="f">⠙</text></svg><svg x="2736"><use xlink:href="#a"/><use xlink:href="#b" x="21.996" y="6.488"/><use xlink:href="#2"/><use xlink:href="#3" y="2.171"/><use xlink:href="#4" y="4.342"/><text y="8.183" class="h">Compiling</text><text x="10.02" y="8.183" class="h">ljutnja.cc</text><text x="21.042" y="8.183" class="f">⠚</text></svg><svg x="2880"><use xlink:href="#a"/><use xlink:href="#b" x="21.996" y="6.488"/><use xlink:href="#2"/><use xlink:href="#3" y="2.171"/><use xlink:href="#4" y="4.342"/><text y="8.183" class="h">Compiling</text><text x="10.02" y="8.183" class="h">ljutnja.cc</text><text x="21.042" y="8.183" class="f">⠞</text></svg><svg x="3024"><use xlink:href="#a"/><use xlink:href="#b" x="-.004" y="8.659"/><use xlink:href="#2"/><use xlink:href="#3" y="2.171"/><use xlink:href="#4" y="4.342"/><use xlink:href="#5" y="6.513"/></svg><svg x="3168"><use xlink:href="#a"/><use xlink:href="#b" x="47.996" y="8.659"/><use xlink:href="#2"/><use xlink:href="#3" y="2.171"/><use xlink:href="#4" y="4.342"/><use xlink:href="#5" y="6.513"/><text y="10.354" class="h">Running</text><text x="8.016" y="10.354" class="h">ljutnja</text><text x="16.032" y="10.354" class="h">with</text><text x="21.042" y="10.354" class="h">sample</text><text x="28.056" y="10.354" class="h">input</text><text x="34.068" y="10.354" class="h">ljutnja.1.in</text><text x="47.094" y="10.354" class="f">⠋</text></svg><svg x="3312"><use xlink:href="#a"/><use xlink:href="#b" x="46.996" y="8.659"/><use xlink:href="#2"/><use xlink:href="#3" y="2.171"/><use xlink:href="#4" y="4.342"/><use xlink:href="#5" y="6.513"/><text y="10.354" class="h">Running</text><text x="8.016" y="10.354" class="h">ljutnja</text><text x="16.032" y="10.354" class="h">with</text><text x="21.042" y="10.354" class="h">sample</text><text x="28.056" y="10.354" class="h">input</text><text x="34.068" y="10.354" class="h">ljutnja.1.in</text></svg><svg x="3456"><use xlink:href="#a"/><use xlink:href="#b" x="-.004" y="10.83"/><use xlink:href="#2"/><use xlink:href="#3" y="2.171"/><use xlink:href="#4" y="4.342"/><use xlink:href="#5" y="6.513"/><use xlink:href="#6" y="8.684"/></svg><svg x="3600"><use xlink:href="#a"/><use xlink:href="#b" x="47.996" y="10.83"/><use xlink:href="#2"/><use xlink:href="#3" y="2.171"/><use xlink:href="#4" y="4.342"/><use xlink:href="#5" y="6.513"/><use xlink:href="#6" y="8.684"/><text y="12.525" class="h">Running</text><text x="8.016" y="12.525" class="h">ljutnja</text><text x="16.032" y="12.525" class="h">with</text><text x="21.042" y="12.525" class="h">sample</text><text x="28.056" y="12.525" class="h">input</text><text x="34.068" y="12.525" class="h">ljutnja.2.in</text><text x="47.094" y="12.525" class="f">⠋</text></svg><svg x="3744"><use xlink:href="#a"/><use xlink:href="#b" x="46.996" y="10.83"/><use xlink:href="#2"/><use xlink:href="#3" y="2.171"/><use xlink:href="#4" y="4.342"/><use xlink:href="#5" y="6.513"/><use xlink:href="#6" y="8.684"/><text y="12.525" class="h">Running</text><text x="8.016" y="12.525" class="h">ljutnja</text><text x="16.032" y="12.525" class="h">with</text><text x="21.042" y="12.525" class="h">sample</text><text x="28.056" y="12.525" class="h">input</text><text x="34.068" y="12.525" class="h">ljutnja.2.in</text></svg><svg x="3888"><use xlink:href="#a"/><use xlink:href="#b" x="-.004" y="13.001"/><use xlink:href="#2"/><use xlink:href="#3" y="2.171"/><use xlink:href="#4" y="4.342"/><use xlink:href="#5" y="6.513"/><use xlink:href="#6" y="8.684"/><use xlink:href="#7" y="10.855"/></svg><svg x="4032"><use xlink:href="#a"/><use xlink:href="#b" x="-.004" y="13.001"/><use xlink:href="#2"/><use xlink:href="#3" y="2.171"/><use xlink:href="#4" y="4.342"/><use xlink:href="#5" y="6.513"/><use xlink:href="#6" y="8.684"/><use xlink:href="#7" y="10.855"/></svg><svg x="4176"><use xlink:href="#a"/><use xlink:href="#b" x="-.004" y="13.001"/><use xlink:href="#2"/><use xlink:href="#3" y="2.171"/><use xlink:href="#4" y="4.342"/><use xlink:href="#5" y="6.513"/><use xlink:href="#6" y="8.684"/><use xlink:href="#7" y="10.855"/></svg><svg x="4320"><use xlink:href="#a"/><use xlink:href="#b" x="47.996" y="13.001"/><use xlink:href="#2"/><use xlink:href="#3" y="2.171"/><use xlink:href="#4" y="4.342"/><use xlink:href="#5" y="6.513"/><use xlink:href="#6" y="8.684"/><use xlink:href="#7" y="10.855"/><use xlink:href="#1" y="13.026"/></svg><svg x="4464"><use xlink:href="#a"/><use xlink:href="#b" x="47.996" y="13.001"/><use xlink:href="#2"/><use xlink:href="#3" y="2.171"/><use xlink:href="#4" y="4.342"/><use xlink:href="#5" y="6.513"/><use xlink:href="#6" y="8.684"/><use xlink:href="#7" y="10.855"/><use xlink:href="#1" y="13.026"/></svg><svg x="4608"><use xlink:href="#a"/><use xlink:href="#b" x="47.996" y="13.001"/><use xlink:href="#2"/><use xlink:href="#3" y="2.171"/><use xlink:href="#4" y="4.342"/><use xlink:href="#5" y="6.513"/><use xlink:href="#6" y="8.684"/><use xlink:href="#7" y="10.855"/><use xlink:href="#1" y="13.026"/></svg><svg x="4752"><use xlink:href="#a"/><use xlink:href="#b" x="47.996" y="13.001"/><use xlink:href="#2"/><use xlink:href="#3" y="2.171"/><use xlink:href="#4" y="4.342"/><use xlink:href="#5" y="6.513"/><use xlink:href="#6" y="8.684"/><use xlink:href="#7" y="10.855"/><use xlink:href="#1" y="13.026"/></svg><svg x="4896"><use xlink:href="#a"/><use xlink:href="#b" x="-.004" y="15.172"/><use xlink:href="#2"/><use xlink:href="#3" y="2.171"/><use xlink:href="#4" y="4.342"/><use xlink:href="#5" y="6.513"/><use xlink:href="#6" y="8.684"/><use xlink:href="#7" y="10.855"/><use xlink:href="#1" y="13.026"/></svg></svg></g></g></svg></svg>